M48
;GenerationSoftware,Autodesk,EAGLE,9.6.2*%
;CreationDate,2023-05-31T15:53:44Z*%
FMAT,2
ICI,OFF
METRIC,TZ,000.000
T6C0.305
T5C0.400
T4C0.650
T3C0.950
T2C1.016
T1C3.302
%
G90
M71
T1
X48768Y66548
X86868Y66548
X2540Y60935
X40640Y60935
X2540Y2540
X40640Y2540
X2540Y124943
X40640Y124943
X2540Y66548
X40640Y66548
X48768Y60935
X86868Y60935
X48768Y2540
X86868Y2540
X48768Y124943
X86868Y124943
T2
X1270Y39370
X83058Y126238
X29210Y65278
X31750Y65278
X34290Y65278
X36830Y65278
X24130Y126238
X26670Y126238
X29210Y126238
X31750Y126238
X60198Y62230
X34290Y126238
X36830Y126238
X47498Y88138
X47498Y90678
X47498Y93218
X47498Y95758
X47498Y98298
X47498Y100838
X47498Y103378
X67818Y126238
X65278Y126238
X1270Y24130
X1270Y26670
X1270Y29210
X1270Y31750
X1270Y34290
X1270Y36830
X62738Y126238
X60198Y126238
X60198Y65278
X62738Y65278
X65278Y65278
X67818Y65278
X21590Y62230
X19050Y62230
X16510Y62230
X13970Y62230
X13970Y1270
X16510Y1270
X19050Y1270
X21590Y1270
X24130Y1270
X26670Y1270
X29210Y1270
X31750Y1270
X34290Y1270
X36830Y1270
X24130Y62230
X26670Y62230
X29210Y62230
X31750Y62230
X34290Y62230
X36830Y62230
X70358Y65278
X72898Y65278
X75438Y65278
X77978Y65278
X47498Y24130
X47498Y26670
X47498Y29210
X47498Y31750
X47498Y34290
X47498Y36830
X47498Y39370
X80518Y65278
X83058Y65278
X70358Y126238
X72898Y126238
X75438Y126238
X77978Y126238
X67818Y62230
X65278Y62230
X62738Y62230
X80518Y126238
X60198Y1270
X62738Y1270
X65278Y1270
X67818Y1270
X70358Y1270
X72898Y1270
X75438Y1270
X77978Y1270
X80518Y1270
X83058Y1270
X70358Y62230
X72898Y62230
X75438Y62230
X77978Y62230
X80518Y62230
X83058Y62230
X1270Y88138
X1270Y90678
X1270Y93218
X1270Y95758
X1270Y98298
X1270Y100838
X1270Y103378
X21590Y126238
X19050Y126238
X16510Y126238
X13970Y126238
X13970Y65278
X16510Y65278
X19050Y65278
X21590Y65278
X24130Y65278
X26670Y65278
T3
X81788Y84328
X12700Y34290
X35560Y20320
X81788Y20320
X58928Y34290
X58928Y98298
X35560Y84328
X12700Y98298
T4
X4905Y19400
X4905Y13620
X4905Y49880
X4905Y44100
X51133Y19400
X51133Y13620
X51133Y49880
X51133Y44100
X4905Y77628
X4905Y113888
X4905Y108108
X51133Y83408
X51133Y77628
X51133Y113888
X51133Y108108
X4905Y83408
T5
X5435Y42672
X47483Y20828
X47483Y12192
X51663Y12192
X1255Y42672
X47483Y51308
X47483Y42672
X51663Y42672
X51663Y51308
X1255Y20828
X1255Y12192
X51663Y20828
X5435Y12192
X5435Y115316
X5435Y20828
X5435Y51308
X47483Y84836
X47483Y76200
X51663Y76200
X51663Y84836
X5435Y84836
X1255Y84836
X1255Y76200
X5435Y76200
X1255Y115316
X1255Y106680
X5435Y106680
X47483Y115316
X47483Y106680
X1255Y51308
X51663Y115316
X51663Y106680
T6
X35992Y34900
X18542Y31623
X6350Y55397
X29210Y6350
X6655Y9347
X27622Y6248
X6286Y7976
X29210Y41910
X24536Y10135
X14668Y31623
X15850Y30683
X27940Y59690
X31750Y6858
X30480Y6350
X8675Y9373
X7722Y9982
X35585Y4846
X6157Y33020
X7048Y25463
X9398Y11024
X5080Y36830
X10160Y10998
X5334Y40132
X10795Y31750
X10795Y34290
X10732Y36830
X7493Y30226
X7709Y42926
X10160Y39370
X38100Y53340
X38100Y54610
X4826Y14732
X4826Y18288
X6350Y8682
X40640Y53340
X40640Y54610
X4953Y45085
X4953Y48895
X6343Y54661
X8001Y25273
X10160Y25527
X65278Y56769
X56388Y55880
X55626Y59639
X51308Y25400
X57023Y24130
X54864Y55880
X60579Y47752
X61849Y47752
X58928Y54714
X87503Y43180
X83566Y39370
X83439Y41910
X67437Y10160
X72898Y10160
X66078Y38621
X54610Y3937
X68580Y10160
X56769Y29210
X71628Y31750
X74549Y32893
X74549Y30353
X71628Y30480
X71628Y33020
X73533Y35433
X74549Y34163
X74041Y28067
X72390Y28067
X76200Y28194
X77470Y29845
X80137Y29591
X80543Y35662
X86868Y27940
X84328Y27940
X83058Y29210
X81598Y29591
X86868Y35560
X84328Y35560
X71374Y38672
X73660Y38672
X76708Y36132
X80518Y38100
X79248Y40640
X76708Y40640
X74168Y40640
X71628Y40640
X69596Y40640
X69469Y28575
X77470Y26670
X62611Y23177
X66993Y23177
X71184Y23177
X75375Y23177
X75438Y19050
X71120Y19050
X66993Y19050
X61468Y19050
X75375Y14922
X71184Y14922
X66929Y14922
X62738Y14668
X77851Y19050
X66104Y10160
X71692Y10160
X76264Y10160
X61912Y27940
X64135Y27940
X77470Y34354
X80455Y33401
X81661Y26797
X56617Y59639
X57658Y55880
X54292Y27940
X54292Y33020
X54292Y35560
X57848Y46228
X57848Y44577
X59626Y47752
X61023Y54864
X73597Y47752
X83058Y48260
X83058Y46990
X85598Y44740
X87757Y41275
X87757Y39370
X77978Y49530
X53657Y3810
X52578Y5080
X66129Y7696
X71120Y7696
X53213Y19812
X53213Y13271
X57658Y15367
X57658Y18288
X66358Y31686
X47244Y4318
X61468Y59690
X71628Y59690
X75438Y55880
X77978Y55880
X61468Y45720
X66548Y45720
X69088Y45720
X74168Y45720
X74168Y43180
X69088Y43180
X66548Y43180
X60198Y43180
X60198Y39370
X61468Y39370
X66548Y40640
X86690Y21184
X83058Y19050
X86868Y16891
X86868Y12700
X86868Y7620
X81788Y10160
X79248Y3810
X71628Y3810
X55118Y1295
X60198Y8890
X55118Y62230
X75438Y50800
X55118Y39370
X64008Y19050
X69825Y7696
X71628Y34163
X74549Y31623
X79121Y31115
X53937Y43764
X47434Y52553
X51803Y52375
X55283Y16815
X53734Y22835
X79832Y9804
X82017Y7366
X51803Y24841
X49784Y8890
X49911Y54610
X53213Y10033
X57074Y11227
X56312Y3937
X53873Y59741
X57963Y50648
X50648Y41885
X47523Y41250
X77076Y7112
X71628Y52095
X62166Y56109
X66040Y56769
X64465Y56744
X64084Y59741
X53086Y55880
X53213Y53340
X52197Y7239
X69698Y10109
X86843Y5156
X86868Y25400
X84328Y25400
X80518Y25400
X80518Y39370
X54737Y7493
X67691Y54991
X67945Y50419
X55131Y25248
X65659Y54737
X53137Y59741
X57074Y3871
X69113Y5161
X58928Y50800
X56947Y50876
X88138Y49530
X88138Y50800
X63944Y31623
X53035Y54153
X66675Y55247
X54610Y59690
X55626Y3937
X66612Y5178
X69556Y35738
X80455Y20130
X82220Y34900
X64770Y31623
X52578Y55397
X75438Y6350
X52883Y9347
X73851Y6248
X52514Y7976
X75438Y41910
X70764Y10135
X60896Y31623
X62078Y30683
X74168Y59690
X77978Y6858
X76708Y6350
X54903Y9373
X53950Y9982
X81813Y4846
X52385Y33020
X53276Y25463
X55626Y11024
X51308Y36830
X56388Y10998
X51562Y40132
X57023Y31750
X57023Y34290
X56959Y36830
X53721Y30226
X53937Y42926
X56388Y39370
X84328Y53340
X84328Y54610
X51054Y14732
X51054Y18288
X52578Y8682
X86868Y53340
X86868Y54610
X51181Y45085
X51181Y48895
X52571Y54661
X54229Y25273
X56388Y25527
X19050Y120777
X10160Y119888
X9398Y123647
X5080Y89408
X10795Y88138
X8636Y119888
X14351Y111760
X15621Y111760
X12700Y118722
X41275Y107188
X37338Y103378
X37211Y105918
X21209Y74168
X26670Y74168
X19850Y102629
X8382Y67945
X22352Y74168
X10541Y93218
X25400Y95758
X28321Y96901
X28321Y94361
X25400Y94488
X25400Y97028
X27305Y99441
X28321Y98171
X27813Y92075
X26162Y92075
X29972Y92202
X31242Y93853
X33909Y93599
X34315Y99670
X40640Y91948
X38100Y91948
X36830Y93218
X35370Y93599
X40640Y99568
X38100Y99568
X25146Y102679
X27432Y102679
X30480Y100139
X34290Y102108
X33020Y104648
X30480Y104648
X27940Y104648
X25400Y104648
X23368Y104648
X23241Y92583
X31242Y90678
X16383Y87186
X20765Y87186
X24955Y87186
X29146Y87186
X29210Y83058
X24892Y83058
X20765Y83058
X15240Y83058
X29146Y78931
X24955Y78931
X20701Y78931
X16510Y78677
X31623Y83058
X19876Y74168
X25463Y74168
X30035Y74168
X15684Y91948
X17907Y91948
X31242Y98361
X34227Y97409
X35433Y90805
X10389Y123647
X11430Y119888
X8064Y91948
X8064Y97028
X8064Y99568
X11620Y110236
X11620Y108585
X13398Y111760
X14795Y118872
X27368Y111760
X36830Y112268
X36830Y110998
X39370Y108748
X41529Y105283
X41529Y103378
X31750Y113538
X7429Y67818
X6350Y69088
X19901Y71704
X24892Y71704
X6985Y83820
X33604Y9804
X11430Y79375
X11430Y82296
X20130Y95694
X1016Y68326
X15240Y123698
X25400Y123698
X29210Y119888
X31750Y119888
X15240Y109728
X20320Y109728
X22860Y109728
X27940Y109728
X27940Y107188
X22860Y107188
X20320Y107188
X13970Y107188
X13970Y103378
X15240Y103378
X20320Y104648
X40462Y85192
X36830Y83058
X40640Y80899
X40640Y76708
X40640Y71628
X35560Y74168
X33020Y67818
X25400Y67818
X8890Y65303
X13970Y72898
X8890Y126238
X29210Y114808
X8890Y103378
X17780Y83058
X23597Y71704
X25400Y98171
X28321Y95631
X32893Y95123
X7709Y107772
X1207Y116561
X5575Y116383
X9055Y80823
X7506Y86843
X33604Y73812
X35789Y71374
X5575Y88849
X3556Y72898
X3683Y118618
X6985Y74041
X10846Y75235
X10084Y67945
X7645Y123749
X11735Y114656
X4420Y105893
X1295Y105258
X30848Y71120
X25400Y116103
X15938Y120117
X19812Y120777
X18237Y120752
X17856Y123749
X6858Y119888
X6985Y117348
X5969Y71247
X23470Y74117
X40615Y69164
X40640Y89408
X38100Y89408
X34290Y89408
X34290Y103378
X8509Y71501
X21463Y118999
X21717Y114427
X8903Y89256
X19431Y118745
X6909Y123749
X10846Y67879
X22885Y69169
X12700Y114808
X10719Y114884
X41910Y113538
X41910Y114808
X17717Y95631
X6807Y118161
X20447Y119255
X8382Y123698
X9398Y67945
X20384Y69186
X23327Y99746
X34227Y84138
X35992Y98908
X18542Y95631
X6350Y119405
X29210Y70358
X6655Y73355
X27622Y70256
X6286Y71984
X29210Y105918
X24536Y74143
X14668Y95631
X15850Y94691
X27940Y123698
X31750Y70866
X30480Y70358
X8675Y73381
X7722Y73990
X35585Y68854
X6157Y97028
X7048Y89471
X9398Y75032
X5080Y100838
X10160Y75006
X5334Y104140
X10795Y95758
X10795Y98298
X10732Y100838
X7493Y94234
X7709Y106934
X10160Y103378
X38100Y117348
X38100Y118618
X4826Y78740
X4826Y82296
X6350Y72690
X40640Y117348
X40640Y118618
X4953Y109093
X4953Y112903
X6343Y118669
X8001Y89281
X10160Y89535
X65278Y120777
X56388Y119888
X55626Y123647
X51308Y89408
X57023Y88138
X54864Y119888
X60579Y111760
X61849Y111760
X58928Y118722
X87503Y107188
X83566Y103378
X83439Y105918
X67437Y74168
X72898Y74168
X66078Y102629
X54610Y67945
X68580Y74168
X56769Y93218
X71628Y95758
X74549Y96901
X74549Y94361
X71628Y94488
X71628Y97028
X73533Y99441
X74549Y98171
X74041Y92075
X72390Y92075
X76200Y92202
X77470Y93853
X80137Y93599
X80543Y99670
X86868Y91948
X84328Y91948
X83058Y93218
X81598Y93599
X86868Y99568
X84328Y99568
X71374Y102679
X73660Y102679
X76708Y100139
X80518Y102108
X79248Y104648
X76708Y104648
X74168Y104648
X71628Y104648
X69596Y104648
X69469Y92583
X77470Y90678
X62611Y87186
X66993Y87186
X71184Y87186
X75375Y87186
X75438Y83058
X71120Y83058
X66993Y83058
X61468Y83058
X75375Y78931
X71184Y78931
X66929Y78931
X62738Y78677
X77851Y83058
X66104Y74168
X71692Y74168
X76264Y74168
X61912Y91948
X64135Y91948
X77470Y98361
X80455Y97409
X81661Y90805
X56617Y123647
X57658Y119888
X54292Y91948
X54292Y97028
X54292Y99568
X57848Y110236
X57848Y108585
X59626Y111760
X61023Y118872
X73597Y111760
X83058Y112268
X83058Y110998
X85598Y108748
X87757Y105283
X87757Y103378
X77978Y113538
X53657Y67818
X52578Y69088
X66129Y71704
X71120Y71704
X53213Y83820
X53213Y77280
X57658Y79375
X57658Y82296
X66358Y95694
X47244Y68326
X61468Y123698
X71628Y123698
X75438Y119888
X77978Y119888
X61468Y109728
X66548Y109728
X69088Y109728
X74168Y109728
X74168Y107188
X69088Y107188
X66548Y107188
X60198Y107188
X60198Y103378
X61468Y103378
X66548Y104648
X86690Y85192
X83058Y83058
X86868Y80899
X86868Y76708
X86868Y71628
X81788Y74168
X79248Y67818
X71628Y67818
X55118Y65303
X60198Y72898
X55118Y126238
X75438Y114808
X55118Y103378
X64008Y83058
X69825Y71704
X71628Y98171
X74549Y95631
X79121Y95123
X53937Y107772
X47434Y116561
X51803Y116383
X55283Y80823
X53734Y86843
X79832Y73812
X19050Y56769
X51803Y88849
X49784Y72898
X49911Y118618
X53213Y74041
X57074Y75235
X56312Y67945
X53873Y123749
X57963Y114656
X50648Y105893
X47523Y105258
X77076Y71120
X71628Y116103
X62166Y120117
X66040Y120777
X64465Y120752
X64084Y123749
X53086Y119888
X53213Y117348
X52197Y71247
X69698Y74117
X86843Y69164
X86868Y89408
X84328Y89408
X80518Y89408
X80518Y103378
X54737Y71501
X67691Y118999
X67945Y114427
X55131Y89256
X65659Y118745
X53137Y123749
X57074Y67879
X69113Y69169
X58928Y114808
X56947Y114884
X88138Y113538
X88138Y114808
X63944Y95631
X53035Y118161
X66675Y119255
X54610Y123698
X55626Y67945
X66612Y69186
X69556Y99746
X80455Y84138
X82220Y98908
X64770Y95631
X52578Y119405
X75438Y70358
X52883Y73355
X73851Y70256
X52514Y71984
X75438Y105918
X70764Y74143
X60896Y95631
X62078Y94691
X74168Y123698
X77978Y70866
X76708Y70358
X54903Y73381
X53950Y73990
X81813Y68854
X52385Y97028
X53276Y89471
X55626Y75032
X51308Y100838
X56388Y75006
X51562Y104140
X57023Y95758
X57023Y98298
X56959Y100838
X53721Y94234
X53937Y106934
X56388Y103378
X84328Y117348
X84328Y118618
X51054Y78740
X51054Y82296
X52578Y72690
X86868Y117348
X86868Y118618
X51181Y109093
X51181Y112903
X52571Y118669
X54229Y89281
X56388Y89535
X10160Y55880
X9398Y59639
X5080Y25400
X10795Y24130
X8636Y55880
X14351Y47752
X15621Y47752
X12700Y54714
X41275Y43180
X37338Y39370
X37211Y41910
X21209Y10160
X26670Y10160
X19850Y38621
X8382Y3937
X22352Y10160
X10541Y29210
X25400Y31750
X28321Y32893
X28321Y30353
X25400Y30480
X25400Y33020
X27305Y35433
X28321Y34163
X27813Y28067
X26162Y28067
X29972Y28194
X31242Y29845
X33909Y29591
X34315Y35662
X40640Y27940
X38100Y27940
X36830Y29210
X35370Y29591
X40640Y35560
X38100Y35560
X25146Y38672
X27432Y38672
X30480Y36132
X34290Y38100
X33020Y40640
X30480Y40640
X27940Y40640
X25400Y40640
X23368Y40640
X23241Y28575
X6985Y77280
X31242Y26670
X16383Y23177
X20765Y23177
X24955Y23177
X29146Y23177
X29210Y19050
X24892Y19050
X20765Y19050
X15240Y19050
X29146Y14922
X24955Y14922
X20701Y14922
X16510Y14668
X31623Y19050
X19876Y10160
X25463Y10160
X30035Y10160
X15684Y27940
X17907Y27940
X31242Y34354
X34227Y33401
X35433Y26797
X10389Y59639
X11430Y55880
X8064Y27940
X8064Y33020
X8064Y35560
X11620Y46228
X11620Y44577
X13398Y47752
X14795Y54864
X27368Y47752
X36830Y48260
X36830Y46990
X39370Y44740
X41529Y41275
X41529Y39370
X31750Y49530
X7429Y3810
X6350Y5080
X19901Y7696
X24892Y7696
X6985Y19812
X6985Y13271
X11430Y15367
X11430Y18288
X20130Y31686
X1016Y4318
X15240Y59690
X25400Y59690
X29210Y55880
X31750Y55880
X15240Y45720
X20320Y45720
X22860Y45720
X27940Y45720
X27940Y43180
X22860Y43180
X20320Y43180
X13970Y43180
X13970Y39370
X15240Y39370
X20320Y40640
X40462Y21184
X36830Y19050
X40640Y16891
X40640Y12700
X40640Y7620
X35560Y10160
X33020Y3810
X25400Y3810
X8890Y1295
X13970Y8890
X8890Y62230
X29210Y50800
X8890Y39370
X17780Y19050
X23597Y7696
X25400Y34163
X28321Y31623
X32893Y31115
X7709Y43764
X1207Y52553
X5575Y52375
X9055Y16815
X7506Y22835
X35789Y7366
X5575Y24841
X3556Y8890
X3683Y54610
X6985Y10033
X10846Y11227
X10084Y3937
X7645Y59741
X11735Y50648
X4420Y41885
X1295Y41250
X30848Y7112
X25400Y52095
X15938Y56109
X19812Y56769
X18237Y56744
X17856Y59741
X6858Y55880
X6985Y53340
X5969Y7239
X23470Y10109
X40615Y5156
X40640Y25400
X38100Y25400
X34290Y25400
X34290Y39370
X8509Y7493
X21463Y54991
X21717Y50419
X8903Y25248
X19431Y54737
X6909Y59741
X10846Y3871
X22885Y5161
X12700Y50800
X10719Y50876
X41910Y49530
X41910Y50800
X17717Y31623
X6807Y54153
X20447Y55247
X8382Y59690
X9398Y3937
X20384Y5178
X23327Y35738
X34227Y20130
X82017Y71374
M30