G04 EAGLE Gerber RS-274X export*
G75*
%MOMM*%
%FSLAX34Y34*%
%LPD*%
%INSoldermask Bottom*%
%IPPOS*%
%AMOC8*
5,1,8,0,0,1.08239X$1,22.5*%
G01*
%ADD10C,3.429000*%
%ADD11C,0.228600*%
%ADD12C,0.762000*%
%ADD13C,0.228344*%
%ADD14C,0.777000*%
%ADD15C,0.227778*%
%ADD16C,2.006600*%
%ADD17C,1.727000*%
%ADD18C,1.397000*%
%ADD19C,1.127000*%
%ADD20C,1.270000*%
%ADD21C,1.627000*%

G36*
X497905Y1151902D02*
X497905Y1151902D01*
X497971Y1151904D01*
X498014Y1151922D01*
X498061Y1151930D01*
X498118Y1151964D01*
X498178Y1151989D01*
X498213Y1152020D01*
X498254Y1152045D01*
X498296Y1152096D01*
X498344Y1152140D01*
X498366Y1152182D01*
X498395Y1152219D01*
X498416Y1152281D01*
X498447Y1152340D01*
X498455Y1152394D01*
X498467Y1152431D01*
X498466Y1152471D01*
X498474Y1152525D01*
X498474Y1156335D01*
X498463Y1156400D01*
X498461Y1156466D01*
X498443Y1156509D01*
X498435Y1156556D01*
X498401Y1156613D01*
X498376Y1156673D01*
X498345Y1156708D01*
X498320Y1156749D01*
X498269Y1156791D01*
X498225Y1156839D01*
X498183Y1156861D01*
X498146Y1156890D01*
X498084Y1156911D01*
X498025Y1156942D01*
X497971Y1156950D01*
X497934Y1156962D01*
X497894Y1156961D01*
X497840Y1156969D01*
X495300Y1156969D01*
X495235Y1156958D01*
X495169Y1156956D01*
X495126Y1156938D01*
X495079Y1156930D01*
X495022Y1156896D01*
X494962Y1156871D01*
X494927Y1156840D01*
X494886Y1156815D01*
X494845Y1156764D01*
X494796Y1156720D01*
X494774Y1156678D01*
X494745Y1156641D01*
X494724Y1156579D01*
X494693Y1156520D01*
X494685Y1156466D01*
X494673Y1156429D01*
X494673Y1156425D01*
X494673Y1156424D01*
X494674Y1156389D01*
X494666Y1156335D01*
X494666Y1152525D01*
X494677Y1152460D01*
X494679Y1152394D01*
X494697Y1152351D01*
X494705Y1152304D01*
X494739Y1152247D01*
X494764Y1152187D01*
X494795Y1152152D01*
X494820Y1152111D01*
X494871Y1152070D01*
X494915Y1152021D01*
X494957Y1151999D01*
X494994Y1151970D01*
X495056Y1151949D01*
X495115Y1151918D01*
X495169Y1151910D01*
X495206Y1151898D01*
X495246Y1151899D01*
X495300Y1151891D01*
X497840Y1151891D01*
X497905Y1151902D01*
G37*
G36*
X35625Y1151902D02*
X35625Y1151902D01*
X35691Y1151904D01*
X35734Y1151922D01*
X35781Y1151930D01*
X35838Y1151964D01*
X35898Y1151989D01*
X35933Y1152020D01*
X35974Y1152045D01*
X36016Y1152096D01*
X36064Y1152140D01*
X36086Y1152182D01*
X36115Y1152219D01*
X36136Y1152281D01*
X36167Y1152340D01*
X36175Y1152394D01*
X36187Y1152431D01*
X36186Y1152471D01*
X36194Y1152525D01*
X36194Y1156335D01*
X36183Y1156400D01*
X36181Y1156466D01*
X36163Y1156509D01*
X36155Y1156556D01*
X36121Y1156613D01*
X36096Y1156673D01*
X36065Y1156708D01*
X36040Y1156749D01*
X35989Y1156791D01*
X35945Y1156839D01*
X35903Y1156861D01*
X35866Y1156890D01*
X35804Y1156911D01*
X35745Y1156942D01*
X35691Y1156950D01*
X35654Y1156962D01*
X35614Y1156961D01*
X35560Y1156969D01*
X33020Y1156969D01*
X32955Y1156958D01*
X32889Y1156956D01*
X32846Y1156938D01*
X32799Y1156930D01*
X32742Y1156896D01*
X32682Y1156871D01*
X32647Y1156840D01*
X32606Y1156815D01*
X32565Y1156764D01*
X32516Y1156720D01*
X32494Y1156678D01*
X32465Y1156641D01*
X32444Y1156579D01*
X32413Y1156520D01*
X32405Y1156466D01*
X32393Y1156429D01*
X32393Y1156425D01*
X32393Y1156424D01*
X32394Y1156389D01*
X32386Y1156335D01*
X32386Y1152525D01*
X32397Y1152460D01*
X32399Y1152394D01*
X32417Y1152351D01*
X32425Y1152304D01*
X32459Y1152247D01*
X32484Y1152187D01*
X32515Y1152152D01*
X32540Y1152111D01*
X32591Y1152070D01*
X32635Y1152021D01*
X32677Y1151999D01*
X32714Y1151970D01*
X32776Y1151949D01*
X32835Y1151918D01*
X32889Y1151910D01*
X32926Y1151898D01*
X32966Y1151899D01*
X33020Y1151891D01*
X35560Y1151891D01*
X35625Y1151902D01*
G37*
G36*
X34355Y847102D02*
X34355Y847102D01*
X34421Y847104D01*
X34464Y847122D01*
X34511Y847130D01*
X34568Y847164D01*
X34628Y847189D01*
X34663Y847220D01*
X34704Y847245D01*
X34746Y847296D01*
X34794Y847340D01*
X34816Y847382D01*
X34845Y847419D01*
X34866Y847481D01*
X34897Y847540D01*
X34905Y847594D01*
X34917Y847631D01*
X34916Y847671D01*
X34924Y847725D01*
X34924Y851535D01*
X34913Y851600D01*
X34911Y851666D01*
X34893Y851709D01*
X34885Y851756D01*
X34851Y851813D01*
X34826Y851873D01*
X34795Y851908D01*
X34770Y851949D01*
X34719Y851991D01*
X34675Y852039D01*
X34633Y852061D01*
X34596Y852090D01*
X34534Y852111D01*
X34475Y852142D01*
X34421Y852150D01*
X34384Y852162D01*
X34344Y852161D01*
X34290Y852169D01*
X31750Y852169D01*
X31685Y852158D01*
X31619Y852156D01*
X31576Y852138D01*
X31529Y852130D01*
X31472Y852096D01*
X31412Y852071D01*
X31377Y852040D01*
X31336Y852015D01*
X31295Y851964D01*
X31246Y851920D01*
X31224Y851878D01*
X31195Y851841D01*
X31174Y851779D01*
X31143Y851720D01*
X31135Y851666D01*
X31123Y851629D01*
X31123Y851625D01*
X31123Y851624D01*
X31124Y851589D01*
X31116Y851535D01*
X31116Y847725D01*
X31127Y847660D01*
X31129Y847594D01*
X31147Y847551D01*
X31155Y847504D01*
X31189Y847447D01*
X31214Y847387D01*
X31245Y847352D01*
X31270Y847311D01*
X31321Y847270D01*
X31365Y847221D01*
X31407Y847199D01*
X31444Y847170D01*
X31506Y847149D01*
X31565Y847118D01*
X31619Y847110D01*
X31656Y847098D01*
X31696Y847099D01*
X31750Y847091D01*
X34290Y847091D01*
X34355Y847102D01*
G37*
G36*
X496635Y847102D02*
X496635Y847102D01*
X496701Y847104D01*
X496744Y847122D01*
X496791Y847130D01*
X496848Y847164D01*
X496908Y847189D01*
X496943Y847220D01*
X496984Y847245D01*
X497026Y847296D01*
X497074Y847340D01*
X497096Y847382D01*
X497125Y847419D01*
X497146Y847481D01*
X497177Y847540D01*
X497185Y847594D01*
X497197Y847631D01*
X497196Y847671D01*
X497204Y847725D01*
X497204Y851535D01*
X497193Y851600D01*
X497191Y851666D01*
X497173Y851709D01*
X497165Y851756D01*
X497131Y851813D01*
X497106Y851873D01*
X497075Y851908D01*
X497050Y851949D01*
X496999Y851991D01*
X496955Y852039D01*
X496913Y852061D01*
X496876Y852090D01*
X496814Y852111D01*
X496755Y852142D01*
X496701Y852150D01*
X496664Y852162D01*
X496624Y852161D01*
X496570Y852169D01*
X494030Y852169D01*
X493965Y852158D01*
X493899Y852156D01*
X493856Y852138D01*
X493809Y852130D01*
X493752Y852096D01*
X493692Y852071D01*
X493657Y852040D01*
X493616Y852015D01*
X493575Y851964D01*
X493526Y851920D01*
X493504Y851878D01*
X493475Y851841D01*
X493454Y851779D01*
X493423Y851720D01*
X493415Y851666D01*
X493403Y851629D01*
X493403Y851625D01*
X493403Y851624D01*
X493404Y851589D01*
X493396Y851535D01*
X493396Y847725D01*
X493407Y847660D01*
X493409Y847594D01*
X493427Y847551D01*
X493435Y847504D01*
X493469Y847447D01*
X493494Y847387D01*
X493525Y847352D01*
X493550Y847311D01*
X493601Y847270D01*
X493645Y847221D01*
X493687Y847199D01*
X493724Y847170D01*
X493786Y847149D01*
X493845Y847118D01*
X493899Y847110D01*
X493936Y847098D01*
X493976Y847099D01*
X494030Y847091D01*
X496570Y847091D01*
X496635Y847102D01*
G37*
G36*
X497905Y511822D02*
X497905Y511822D01*
X497971Y511824D01*
X498014Y511842D01*
X498061Y511850D01*
X498118Y511884D01*
X498178Y511909D01*
X498213Y511940D01*
X498254Y511965D01*
X498296Y512016D01*
X498344Y512060D01*
X498366Y512102D01*
X498395Y512139D01*
X498416Y512201D01*
X498447Y512260D01*
X498455Y512314D01*
X498467Y512351D01*
X498466Y512391D01*
X498474Y512445D01*
X498474Y516255D01*
X498463Y516320D01*
X498461Y516386D01*
X498443Y516429D01*
X498435Y516476D01*
X498401Y516533D01*
X498376Y516593D01*
X498345Y516628D01*
X498320Y516669D01*
X498269Y516711D01*
X498225Y516759D01*
X498183Y516781D01*
X498146Y516810D01*
X498084Y516831D01*
X498025Y516862D01*
X497971Y516870D01*
X497934Y516882D01*
X497894Y516881D01*
X497840Y516889D01*
X495300Y516889D01*
X495235Y516878D01*
X495169Y516876D01*
X495126Y516858D01*
X495079Y516850D01*
X495022Y516816D01*
X494962Y516791D01*
X494927Y516760D01*
X494886Y516735D01*
X494845Y516684D01*
X494796Y516640D01*
X494774Y516598D01*
X494745Y516561D01*
X494724Y516499D01*
X494693Y516440D01*
X494685Y516386D01*
X494673Y516349D01*
X494673Y516345D01*
X494673Y516344D01*
X494674Y516309D01*
X494666Y516255D01*
X494666Y512445D01*
X494677Y512380D01*
X494679Y512314D01*
X494697Y512271D01*
X494705Y512224D01*
X494739Y512167D01*
X494764Y512107D01*
X494795Y512072D01*
X494820Y512031D01*
X494871Y511990D01*
X494915Y511941D01*
X494957Y511919D01*
X494994Y511890D01*
X495056Y511869D01*
X495115Y511838D01*
X495169Y511830D01*
X495206Y511818D01*
X495246Y511819D01*
X495300Y511811D01*
X497840Y511811D01*
X497905Y511822D01*
G37*
G36*
X35625Y511822D02*
X35625Y511822D01*
X35691Y511824D01*
X35734Y511842D01*
X35781Y511850D01*
X35838Y511884D01*
X35898Y511909D01*
X35933Y511940D01*
X35974Y511965D01*
X36016Y512016D01*
X36064Y512060D01*
X36086Y512102D01*
X36115Y512139D01*
X36136Y512201D01*
X36167Y512260D01*
X36175Y512314D01*
X36187Y512351D01*
X36186Y512391D01*
X36194Y512445D01*
X36194Y516255D01*
X36183Y516320D01*
X36181Y516386D01*
X36163Y516429D01*
X36155Y516476D01*
X36121Y516533D01*
X36096Y516593D01*
X36065Y516628D01*
X36040Y516669D01*
X35989Y516711D01*
X35945Y516759D01*
X35903Y516781D01*
X35866Y516810D01*
X35804Y516831D01*
X35745Y516862D01*
X35691Y516870D01*
X35654Y516882D01*
X35614Y516881D01*
X35560Y516889D01*
X33020Y516889D01*
X32955Y516878D01*
X32889Y516876D01*
X32846Y516858D01*
X32799Y516850D01*
X32742Y516816D01*
X32682Y516791D01*
X32647Y516760D01*
X32606Y516735D01*
X32565Y516684D01*
X32516Y516640D01*
X32494Y516598D01*
X32465Y516561D01*
X32444Y516499D01*
X32413Y516440D01*
X32405Y516386D01*
X32393Y516349D01*
X32393Y516345D01*
X32393Y516344D01*
X32394Y516309D01*
X32386Y516255D01*
X32386Y512445D01*
X32397Y512380D01*
X32399Y512314D01*
X32417Y512271D01*
X32425Y512224D01*
X32459Y512167D01*
X32484Y512107D01*
X32515Y512072D01*
X32540Y512031D01*
X32591Y511990D01*
X32635Y511941D01*
X32677Y511919D01*
X32714Y511890D01*
X32776Y511869D01*
X32835Y511838D01*
X32889Y511830D01*
X32926Y511818D01*
X32966Y511819D01*
X33020Y511811D01*
X35560Y511811D01*
X35625Y511822D01*
G37*
G36*
X496635Y207022D02*
X496635Y207022D01*
X496701Y207024D01*
X496744Y207042D01*
X496791Y207050D01*
X496848Y207084D01*
X496908Y207109D01*
X496943Y207140D01*
X496984Y207165D01*
X497026Y207216D01*
X497074Y207260D01*
X497096Y207302D01*
X497125Y207339D01*
X497146Y207401D01*
X497177Y207460D01*
X497185Y207514D01*
X497197Y207551D01*
X497196Y207591D01*
X497204Y207645D01*
X497204Y211455D01*
X497193Y211520D01*
X497191Y211586D01*
X497173Y211629D01*
X497165Y211676D01*
X497131Y211733D01*
X497106Y211793D01*
X497075Y211828D01*
X497050Y211869D01*
X496999Y211911D01*
X496955Y211959D01*
X496913Y211981D01*
X496876Y212010D01*
X496814Y212031D01*
X496755Y212062D01*
X496701Y212070D01*
X496664Y212082D01*
X496624Y212081D01*
X496570Y212089D01*
X494030Y212089D01*
X493965Y212078D01*
X493899Y212076D01*
X493856Y212058D01*
X493809Y212050D01*
X493752Y212016D01*
X493692Y211991D01*
X493657Y211960D01*
X493616Y211935D01*
X493575Y211884D01*
X493526Y211840D01*
X493504Y211798D01*
X493475Y211761D01*
X493454Y211699D01*
X493423Y211640D01*
X493415Y211586D01*
X493403Y211549D01*
X493403Y211545D01*
X493403Y211544D01*
X493404Y211509D01*
X493396Y211455D01*
X493396Y207645D01*
X493407Y207580D01*
X493409Y207514D01*
X493427Y207471D01*
X493435Y207424D01*
X493469Y207367D01*
X493494Y207307D01*
X493525Y207272D01*
X493550Y207231D01*
X493601Y207190D01*
X493645Y207141D01*
X493687Y207119D01*
X493724Y207090D01*
X493786Y207069D01*
X493845Y207038D01*
X493899Y207030D01*
X493936Y207018D01*
X493976Y207019D01*
X494030Y207011D01*
X496570Y207011D01*
X496635Y207022D01*
G37*
G36*
X34355Y207022D02*
X34355Y207022D01*
X34421Y207024D01*
X34464Y207042D01*
X34511Y207050D01*
X34568Y207084D01*
X34628Y207109D01*
X34663Y207140D01*
X34704Y207165D01*
X34746Y207216D01*
X34794Y207260D01*
X34816Y207302D01*
X34845Y207339D01*
X34866Y207401D01*
X34897Y207460D01*
X34905Y207514D01*
X34917Y207551D01*
X34916Y207591D01*
X34924Y207645D01*
X34924Y211455D01*
X34913Y211520D01*
X34911Y211586D01*
X34893Y211629D01*
X34885Y211676D01*
X34851Y211733D01*
X34826Y211793D01*
X34795Y211828D01*
X34770Y211869D01*
X34719Y211911D01*
X34675Y211959D01*
X34633Y211981D01*
X34596Y212010D01*
X34534Y212031D01*
X34475Y212062D01*
X34421Y212070D01*
X34384Y212082D01*
X34344Y212081D01*
X34290Y212089D01*
X31750Y212089D01*
X31685Y212078D01*
X31619Y212076D01*
X31576Y212058D01*
X31529Y212050D01*
X31472Y212016D01*
X31412Y211991D01*
X31377Y211960D01*
X31336Y211935D01*
X31295Y211884D01*
X31246Y211840D01*
X31224Y211798D01*
X31195Y211761D01*
X31174Y211699D01*
X31143Y211640D01*
X31135Y211586D01*
X31123Y211549D01*
X31123Y211545D01*
X31123Y211544D01*
X31124Y211509D01*
X31116Y211455D01*
X31116Y207645D01*
X31127Y207580D01*
X31129Y207514D01*
X31147Y207471D01*
X31155Y207424D01*
X31189Y207367D01*
X31214Y207307D01*
X31245Y207272D01*
X31270Y207231D01*
X31321Y207190D01*
X31365Y207141D01*
X31407Y207119D01*
X31444Y207090D01*
X31506Y207069D01*
X31565Y207038D01*
X31619Y207030D01*
X31656Y207018D01*
X31696Y207019D01*
X31750Y207011D01*
X34290Y207011D01*
X34355Y207022D01*
G37*
G36*
X81980Y955687D02*
X81980Y955687D01*
X82046Y955689D01*
X82089Y955707D01*
X82136Y955715D01*
X82193Y955749D01*
X82253Y955774D01*
X82288Y955805D01*
X82329Y955830D01*
X82371Y955881D01*
X82419Y955925D01*
X82441Y955967D01*
X82470Y956004D01*
X82491Y956066D01*
X82522Y956125D01*
X82530Y956179D01*
X82542Y956216D01*
X82541Y956256D01*
X82549Y956310D01*
X82549Y958850D01*
X82538Y958915D01*
X82536Y958981D01*
X82518Y959024D01*
X82510Y959071D01*
X82476Y959128D01*
X82451Y959188D01*
X82420Y959223D01*
X82395Y959264D01*
X82344Y959306D01*
X82300Y959354D01*
X82258Y959376D01*
X82221Y959405D01*
X82159Y959426D01*
X82100Y959457D01*
X82046Y959465D01*
X82009Y959477D01*
X81969Y959476D01*
X81915Y959484D01*
X78105Y959484D01*
X78040Y959473D01*
X77974Y959471D01*
X77931Y959453D01*
X77884Y959445D01*
X77827Y959411D01*
X77767Y959386D01*
X77732Y959355D01*
X77691Y959330D01*
X77650Y959279D01*
X77601Y959235D01*
X77579Y959193D01*
X77550Y959156D01*
X77529Y959094D01*
X77498Y959035D01*
X77490Y958981D01*
X77478Y958944D01*
X77478Y958941D01*
X77479Y958904D01*
X77471Y958850D01*
X77471Y956310D01*
X77482Y956245D01*
X77484Y956179D01*
X77502Y956136D01*
X77510Y956089D01*
X77544Y956032D01*
X77569Y955972D01*
X77600Y955937D01*
X77625Y955896D01*
X77676Y955855D01*
X77720Y955806D01*
X77762Y955784D01*
X77799Y955755D01*
X77861Y955734D01*
X77920Y955703D01*
X77974Y955695D01*
X78011Y955683D01*
X78051Y955684D01*
X78105Y955676D01*
X81915Y955676D01*
X81980Y955687D01*
G37*
G36*
X544260Y955687D02*
X544260Y955687D01*
X544326Y955689D01*
X544369Y955707D01*
X544416Y955715D01*
X544473Y955749D01*
X544533Y955774D01*
X544568Y955805D01*
X544609Y955830D01*
X544651Y955881D01*
X544699Y955925D01*
X544721Y955967D01*
X544750Y956004D01*
X544771Y956066D01*
X544802Y956125D01*
X544810Y956179D01*
X544822Y956216D01*
X544821Y956256D01*
X544829Y956310D01*
X544829Y958850D01*
X544818Y958915D01*
X544816Y958981D01*
X544798Y959024D01*
X544790Y959071D01*
X544756Y959128D01*
X544731Y959188D01*
X544700Y959223D01*
X544675Y959264D01*
X544624Y959306D01*
X544580Y959354D01*
X544538Y959376D01*
X544501Y959405D01*
X544439Y959426D01*
X544380Y959457D01*
X544326Y959465D01*
X544289Y959477D01*
X544249Y959476D01*
X544195Y959484D01*
X540385Y959484D01*
X540320Y959473D01*
X540254Y959471D01*
X540211Y959453D01*
X540164Y959445D01*
X540107Y959411D01*
X540047Y959386D01*
X540012Y959355D01*
X539971Y959330D01*
X539930Y959279D01*
X539881Y959235D01*
X539859Y959193D01*
X539830Y959156D01*
X539809Y959094D01*
X539778Y959035D01*
X539770Y958981D01*
X539758Y958944D01*
X539758Y958941D01*
X539759Y958904D01*
X539751Y958850D01*
X539751Y956310D01*
X539762Y956245D01*
X539764Y956179D01*
X539782Y956136D01*
X539790Y956089D01*
X539824Y956032D01*
X539849Y955972D01*
X539880Y955937D01*
X539905Y955896D01*
X539956Y955855D01*
X540000Y955806D01*
X540042Y955784D01*
X540079Y955755D01*
X540141Y955734D01*
X540200Y955703D01*
X540254Y955695D01*
X540291Y955683D01*
X540331Y955684D01*
X540385Y955676D01*
X544195Y955676D01*
X544260Y955687D01*
G37*
G36*
X81980Y904887D02*
X81980Y904887D01*
X82046Y904889D01*
X82089Y904907D01*
X82136Y904915D01*
X82193Y904949D01*
X82253Y904974D01*
X82288Y905005D01*
X82329Y905030D01*
X82371Y905081D01*
X82419Y905125D01*
X82441Y905167D01*
X82470Y905204D01*
X82491Y905266D01*
X82522Y905325D01*
X82530Y905379D01*
X82542Y905416D01*
X82541Y905456D01*
X82549Y905510D01*
X82549Y908050D01*
X82538Y908115D01*
X82536Y908181D01*
X82518Y908224D01*
X82510Y908271D01*
X82476Y908328D01*
X82451Y908388D01*
X82420Y908423D01*
X82395Y908464D01*
X82344Y908506D01*
X82300Y908554D01*
X82258Y908576D01*
X82221Y908605D01*
X82159Y908626D01*
X82100Y908657D01*
X82046Y908665D01*
X82009Y908677D01*
X81969Y908676D01*
X81915Y908684D01*
X78105Y908684D01*
X78040Y908673D01*
X77974Y908671D01*
X77931Y908653D01*
X77884Y908645D01*
X77827Y908611D01*
X77767Y908586D01*
X77732Y908555D01*
X77691Y908530D01*
X77650Y908479D01*
X77601Y908435D01*
X77579Y908393D01*
X77550Y908356D01*
X77529Y908294D01*
X77498Y908235D01*
X77490Y908181D01*
X77478Y908144D01*
X77478Y908141D01*
X77479Y908104D01*
X77471Y908050D01*
X77471Y905510D01*
X77482Y905445D01*
X77484Y905379D01*
X77502Y905336D01*
X77510Y905289D01*
X77544Y905232D01*
X77569Y905172D01*
X77600Y905137D01*
X77625Y905096D01*
X77676Y905055D01*
X77720Y905006D01*
X77762Y904984D01*
X77799Y904955D01*
X77861Y904934D01*
X77920Y904903D01*
X77974Y904895D01*
X78011Y904883D01*
X78051Y904884D01*
X78105Y904876D01*
X81915Y904876D01*
X81980Y904887D01*
G37*
G36*
X544260Y904887D02*
X544260Y904887D01*
X544326Y904889D01*
X544369Y904907D01*
X544416Y904915D01*
X544473Y904949D01*
X544533Y904974D01*
X544568Y905005D01*
X544609Y905030D01*
X544651Y905081D01*
X544699Y905125D01*
X544721Y905167D01*
X544750Y905204D01*
X544771Y905266D01*
X544802Y905325D01*
X544810Y905379D01*
X544822Y905416D01*
X544821Y905456D01*
X544829Y905510D01*
X544829Y908050D01*
X544818Y908115D01*
X544816Y908181D01*
X544798Y908224D01*
X544790Y908271D01*
X544756Y908328D01*
X544731Y908388D01*
X544700Y908423D01*
X544675Y908464D01*
X544624Y908506D01*
X544580Y908554D01*
X544538Y908576D01*
X544501Y908605D01*
X544439Y908626D01*
X544380Y908657D01*
X544326Y908665D01*
X544289Y908677D01*
X544249Y908676D01*
X544195Y908684D01*
X540385Y908684D01*
X540320Y908673D01*
X540254Y908671D01*
X540211Y908653D01*
X540164Y908645D01*
X540107Y908611D01*
X540047Y908586D01*
X540012Y908555D01*
X539971Y908530D01*
X539930Y908479D01*
X539881Y908435D01*
X539859Y908393D01*
X539830Y908356D01*
X539809Y908294D01*
X539778Y908235D01*
X539770Y908181D01*
X539758Y908144D01*
X539758Y908141D01*
X539759Y908104D01*
X539751Y908050D01*
X539751Y905510D01*
X539762Y905445D01*
X539764Y905379D01*
X539782Y905336D01*
X539790Y905289D01*
X539824Y905232D01*
X539849Y905172D01*
X539880Y905137D01*
X539905Y905096D01*
X539956Y905055D01*
X540000Y905006D01*
X540042Y904984D01*
X540079Y904955D01*
X540141Y904934D01*
X540200Y904903D01*
X540254Y904895D01*
X540291Y904883D01*
X540331Y904884D01*
X540385Y904876D01*
X544195Y904876D01*
X544260Y904887D01*
G37*
G36*
X243270Y1190637D02*
X243270Y1190637D01*
X243336Y1190639D01*
X243379Y1190657D01*
X243426Y1190665D01*
X243483Y1190699D01*
X243543Y1190724D01*
X243578Y1190755D01*
X243619Y1190780D01*
X243661Y1190831D01*
X243709Y1190875D01*
X243731Y1190917D01*
X243760Y1190954D01*
X243781Y1191016D01*
X243812Y1191075D01*
X243820Y1191129D01*
X243832Y1191166D01*
X243831Y1191206D01*
X243839Y1191260D01*
X243839Y1193800D01*
X243828Y1193865D01*
X243826Y1193931D01*
X243808Y1193974D01*
X243800Y1194021D01*
X243766Y1194078D01*
X243741Y1194138D01*
X243710Y1194173D01*
X243685Y1194214D01*
X243634Y1194256D01*
X243590Y1194304D01*
X243548Y1194326D01*
X243511Y1194355D01*
X243449Y1194376D01*
X243390Y1194407D01*
X243336Y1194415D01*
X243299Y1194427D01*
X243259Y1194426D01*
X243205Y1194434D01*
X239395Y1194434D01*
X239330Y1194423D01*
X239264Y1194421D01*
X239221Y1194403D01*
X239174Y1194395D01*
X239117Y1194361D01*
X239057Y1194336D01*
X239022Y1194305D01*
X238981Y1194280D01*
X238940Y1194229D01*
X238891Y1194185D01*
X238869Y1194143D01*
X238840Y1194106D01*
X238819Y1194044D01*
X238788Y1193985D01*
X238780Y1193931D01*
X238768Y1193894D01*
X238768Y1193891D01*
X238769Y1193854D01*
X238761Y1193800D01*
X238761Y1191260D01*
X238772Y1191195D01*
X238774Y1191129D01*
X238792Y1191086D01*
X238800Y1191039D01*
X238834Y1190982D01*
X238859Y1190922D01*
X238890Y1190887D01*
X238915Y1190846D01*
X238966Y1190805D01*
X239010Y1190756D01*
X239052Y1190734D01*
X239089Y1190705D01*
X239151Y1190684D01*
X239210Y1190653D01*
X239264Y1190645D01*
X239301Y1190633D01*
X239341Y1190634D01*
X239395Y1190626D01*
X243205Y1190626D01*
X243270Y1190637D01*
G37*
G36*
X268670Y1190637D02*
X268670Y1190637D01*
X268736Y1190639D01*
X268779Y1190657D01*
X268826Y1190665D01*
X268883Y1190699D01*
X268943Y1190724D01*
X268978Y1190755D01*
X269019Y1190780D01*
X269061Y1190831D01*
X269109Y1190875D01*
X269131Y1190917D01*
X269160Y1190954D01*
X269181Y1191016D01*
X269212Y1191075D01*
X269220Y1191129D01*
X269232Y1191166D01*
X269231Y1191206D01*
X269239Y1191260D01*
X269239Y1193800D01*
X269228Y1193865D01*
X269226Y1193931D01*
X269208Y1193974D01*
X269200Y1194021D01*
X269166Y1194078D01*
X269141Y1194138D01*
X269110Y1194173D01*
X269085Y1194214D01*
X269034Y1194256D01*
X268990Y1194304D01*
X268948Y1194326D01*
X268911Y1194355D01*
X268849Y1194376D01*
X268790Y1194407D01*
X268736Y1194415D01*
X268699Y1194427D01*
X268659Y1194426D01*
X268605Y1194434D01*
X264795Y1194434D01*
X264730Y1194423D01*
X264664Y1194421D01*
X264621Y1194403D01*
X264574Y1194395D01*
X264517Y1194361D01*
X264457Y1194336D01*
X264422Y1194305D01*
X264381Y1194280D01*
X264340Y1194229D01*
X264291Y1194185D01*
X264269Y1194143D01*
X264240Y1194106D01*
X264219Y1194044D01*
X264188Y1193985D01*
X264180Y1193931D01*
X264168Y1193894D01*
X264168Y1193891D01*
X264169Y1193854D01*
X264161Y1193800D01*
X264161Y1191260D01*
X264172Y1191195D01*
X264174Y1191129D01*
X264192Y1191086D01*
X264200Y1191039D01*
X264234Y1190982D01*
X264259Y1190922D01*
X264290Y1190887D01*
X264315Y1190846D01*
X264366Y1190805D01*
X264410Y1190756D01*
X264452Y1190734D01*
X264489Y1190705D01*
X264551Y1190684D01*
X264610Y1190653D01*
X264664Y1190645D01*
X264701Y1190633D01*
X264741Y1190634D01*
X264795Y1190626D01*
X268605Y1190626D01*
X268670Y1190637D01*
G37*
G36*
X705550Y1190637D02*
X705550Y1190637D01*
X705616Y1190639D01*
X705659Y1190657D01*
X705706Y1190665D01*
X705763Y1190699D01*
X705823Y1190724D01*
X705858Y1190755D01*
X705899Y1190780D01*
X705941Y1190831D01*
X705989Y1190875D01*
X706011Y1190917D01*
X706040Y1190954D01*
X706061Y1191016D01*
X706092Y1191075D01*
X706100Y1191129D01*
X706112Y1191166D01*
X706111Y1191206D01*
X706119Y1191260D01*
X706119Y1193800D01*
X706108Y1193865D01*
X706106Y1193931D01*
X706088Y1193974D01*
X706080Y1194021D01*
X706046Y1194078D01*
X706021Y1194138D01*
X705990Y1194173D01*
X705965Y1194214D01*
X705914Y1194256D01*
X705870Y1194304D01*
X705828Y1194326D01*
X705791Y1194355D01*
X705729Y1194376D01*
X705670Y1194407D01*
X705616Y1194415D01*
X705579Y1194427D01*
X705539Y1194426D01*
X705485Y1194434D01*
X701675Y1194434D01*
X701610Y1194423D01*
X701544Y1194421D01*
X701501Y1194403D01*
X701454Y1194395D01*
X701397Y1194361D01*
X701337Y1194336D01*
X701302Y1194305D01*
X701261Y1194280D01*
X701220Y1194229D01*
X701171Y1194185D01*
X701149Y1194143D01*
X701120Y1194106D01*
X701099Y1194044D01*
X701068Y1193985D01*
X701060Y1193931D01*
X701048Y1193894D01*
X701048Y1193891D01*
X701049Y1193854D01*
X701041Y1193800D01*
X701041Y1191260D01*
X701052Y1191195D01*
X701054Y1191129D01*
X701072Y1191086D01*
X701080Y1191039D01*
X701114Y1190982D01*
X701139Y1190922D01*
X701170Y1190887D01*
X701195Y1190846D01*
X701246Y1190805D01*
X701290Y1190756D01*
X701332Y1190734D01*
X701369Y1190705D01*
X701431Y1190684D01*
X701490Y1190653D01*
X701544Y1190645D01*
X701581Y1190633D01*
X701621Y1190634D01*
X701675Y1190626D01*
X705485Y1190626D01*
X705550Y1190637D01*
G37*
G36*
X730950Y1190637D02*
X730950Y1190637D01*
X731016Y1190639D01*
X731059Y1190657D01*
X731106Y1190665D01*
X731163Y1190699D01*
X731223Y1190724D01*
X731258Y1190755D01*
X731299Y1190780D01*
X731341Y1190831D01*
X731389Y1190875D01*
X731411Y1190917D01*
X731440Y1190954D01*
X731461Y1191016D01*
X731492Y1191075D01*
X731500Y1191129D01*
X731512Y1191166D01*
X731511Y1191206D01*
X731519Y1191260D01*
X731519Y1193800D01*
X731508Y1193865D01*
X731506Y1193931D01*
X731488Y1193974D01*
X731480Y1194021D01*
X731446Y1194078D01*
X731421Y1194138D01*
X731390Y1194173D01*
X731365Y1194214D01*
X731314Y1194256D01*
X731270Y1194304D01*
X731228Y1194326D01*
X731191Y1194355D01*
X731129Y1194376D01*
X731070Y1194407D01*
X731016Y1194415D01*
X730979Y1194427D01*
X730939Y1194426D01*
X730885Y1194434D01*
X727075Y1194434D01*
X727010Y1194423D01*
X726944Y1194421D01*
X726901Y1194403D01*
X726854Y1194395D01*
X726797Y1194361D01*
X726737Y1194336D01*
X726702Y1194305D01*
X726661Y1194280D01*
X726620Y1194229D01*
X726571Y1194185D01*
X726549Y1194143D01*
X726520Y1194106D01*
X726499Y1194044D01*
X726468Y1193985D01*
X726460Y1193931D01*
X726448Y1193894D01*
X726448Y1193891D01*
X726449Y1193854D01*
X726441Y1193800D01*
X726441Y1191260D01*
X726452Y1191195D01*
X726454Y1191129D01*
X726472Y1191086D01*
X726480Y1191039D01*
X726514Y1190982D01*
X726539Y1190922D01*
X726570Y1190887D01*
X726595Y1190846D01*
X726646Y1190805D01*
X726690Y1190756D01*
X726732Y1190734D01*
X726769Y1190705D01*
X726831Y1190684D01*
X726890Y1190653D01*
X726944Y1190645D01*
X726981Y1190633D01*
X727021Y1190634D01*
X727075Y1190626D01*
X730885Y1190626D01*
X730950Y1190637D01*
G37*
G36*
X544260Y1006487D02*
X544260Y1006487D01*
X544326Y1006489D01*
X544369Y1006507D01*
X544416Y1006515D01*
X544473Y1006549D01*
X544533Y1006574D01*
X544568Y1006605D01*
X544609Y1006630D01*
X544651Y1006681D01*
X544699Y1006725D01*
X544721Y1006767D01*
X544750Y1006804D01*
X544771Y1006866D01*
X544802Y1006925D01*
X544810Y1006979D01*
X544822Y1007016D01*
X544821Y1007056D01*
X544829Y1007110D01*
X544829Y1009650D01*
X544818Y1009715D01*
X544816Y1009781D01*
X544798Y1009824D01*
X544790Y1009871D01*
X544756Y1009928D01*
X544731Y1009988D01*
X544700Y1010023D01*
X544675Y1010064D01*
X544624Y1010106D01*
X544580Y1010154D01*
X544538Y1010176D01*
X544501Y1010205D01*
X544439Y1010226D01*
X544380Y1010257D01*
X544326Y1010265D01*
X544289Y1010277D01*
X544249Y1010276D01*
X544195Y1010284D01*
X540385Y1010284D01*
X540320Y1010273D01*
X540254Y1010271D01*
X540211Y1010253D01*
X540164Y1010245D01*
X540107Y1010211D01*
X540047Y1010186D01*
X540012Y1010155D01*
X539971Y1010130D01*
X539930Y1010079D01*
X539881Y1010035D01*
X539859Y1009993D01*
X539830Y1009956D01*
X539809Y1009894D01*
X539778Y1009835D01*
X539770Y1009781D01*
X539758Y1009744D01*
X539758Y1009741D01*
X539759Y1009704D01*
X539751Y1009650D01*
X539751Y1007110D01*
X539762Y1007045D01*
X539764Y1006979D01*
X539782Y1006936D01*
X539790Y1006889D01*
X539824Y1006832D01*
X539849Y1006772D01*
X539880Y1006737D01*
X539905Y1006696D01*
X539956Y1006655D01*
X540000Y1006606D01*
X540042Y1006584D01*
X540079Y1006555D01*
X540141Y1006534D01*
X540200Y1006503D01*
X540254Y1006495D01*
X540291Y1006483D01*
X540331Y1006484D01*
X540385Y1006476D01*
X544195Y1006476D01*
X544260Y1006487D01*
G37*
G36*
X81980Y1006487D02*
X81980Y1006487D01*
X82046Y1006489D01*
X82089Y1006507D01*
X82136Y1006515D01*
X82193Y1006549D01*
X82253Y1006574D01*
X82288Y1006605D01*
X82329Y1006630D01*
X82371Y1006681D01*
X82419Y1006725D01*
X82441Y1006767D01*
X82470Y1006804D01*
X82491Y1006866D01*
X82522Y1006925D01*
X82530Y1006979D01*
X82542Y1007016D01*
X82541Y1007056D01*
X82549Y1007110D01*
X82549Y1009650D01*
X82538Y1009715D01*
X82536Y1009781D01*
X82518Y1009824D01*
X82510Y1009871D01*
X82476Y1009928D01*
X82451Y1009988D01*
X82420Y1010023D01*
X82395Y1010064D01*
X82344Y1010106D01*
X82300Y1010154D01*
X82258Y1010176D01*
X82221Y1010205D01*
X82159Y1010226D01*
X82100Y1010257D01*
X82046Y1010265D01*
X82009Y1010277D01*
X81969Y1010276D01*
X81915Y1010284D01*
X78105Y1010284D01*
X78040Y1010273D01*
X77974Y1010271D01*
X77931Y1010253D01*
X77884Y1010245D01*
X77827Y1010211D01*
X77767Y1010186D01*
X77732Y1010155D01*
X77691Y1010130D01*
X77650Y1010079D01*
X77601Y1010035D01*
X77579Y1009993D01*
X77550Y1009956D01*
X77529Y1009894D01*
X77498Y1009835D01*
X77490Y1009781D01*
X77478Y1009744D01*
X77478Y1009741D01*
X77479Y1009704D01*
X77471Y1009650D01*
X77471Y1007110D01*
X77482Y1007045D01*
X77484Y1006979D01*
X77502Y1006936D01*
X77510Y1006889D01*
X77544Y1006832D01*
X77569Y1006772D01*
X77600Y1006737D01*
X77625Y1006696D01*
X77676Y1006655D01*
X77720Y1006606D01*
X77762Y1006584D01*
X77799Y1006555D01*
X77861Y1006534D01*
X77920Y1006503D01*
X77974Y1006495D01*
X78011Y1006483D01*
X78051Y1006484D01*
X78105Y1006476D01*
X81915Y1006476D01*
X81980Y1006487D01*
G37*
G36*
X544260Y981087D02*
X544260Y981087D01*
X544326Y981089D01*
X544369Y981107D01*
X544416Y981115D01*
X544473Y981149D01*
X544533Y981174D01*
X544568Y981205D01*
X544609Y981230D01*
X544651Y981281D01*
X544699Y981325D01*
X544721Y981367D01*
X544750Y981404D01*
X544771Y981466D01*
X544802Y981525D01*
X544810Y981579D01*
X544822Y981616D01*
X544821Y981656D01*
X544829Y981710D01*
X544829Y984250D01*
X544818Y984315D01*
X544816Y984381D01*
X544798Y984424D01*
X544790Y984471D01*
X544756Y984528D01*
X544731Y984588D01*
X544700Y984623D01*
X544675Y984664D01*
X544624Y984706D01*
X544580Y984754D01*
X544538Y984776D01*
X544501Y984805D01*
X544439Y984826D01*
X544380Y984857D01*
X544326Y984865D01*
X544289Y984877D01*
X544249Y984876D01*
X544195Y984884D01*
X540385Y984884D01*
X540320Y984873D01*
X540254Y984871D01*
X540211Y984853D01*
X540164Y984845D01*
X540107Y984811D01*
X540047Y984786D01*
X540012Y984755D01*
X539971Y984730D01*
X539930Y984679D01*
X539881Y984635D01*
X539859Y984593D01*
X539830Y984556D01*
X539809Y984494D01*
X539778Y984435D01*
X539770Y984381D01*
X539758Y984344D01*
X539758Y984341D01*
X539759Y984304D01*
X539751Y984250D01*
X539751Y981710D01*
X539762Y981645D01*
X539764Y981579D01*
X539782Y981536D01*
X539790Y981489D01*
X539824Y981432D01*
X539849Y981372D01*
X539880Y981337D01*
X539905Y981296D01*
X539956Y981255D01*
X540000Y981206D01*
X540042Y981184D01*
X540079Y981155D01*
X540141Y981134D01*
X540200Y981103D01*
X540254Y981095D01*
X540291Y981083D01*
X540331Y981084D01*
X540385Y981076D01*
X544195Y981076D01*
X544260Y981087D01*
G37*
G36*
X81980Y981087D02*
X81980Y981087D01*
X82046Y981089D01*
X82089Y981107D01*
X82136Y981115D01*
X82193Y981149D01*
X82253Y981174D01*
X82288Y981205D01*
X82329Y981230D01*
X82371Y981281D01*
X82419Y981325D01*
X82441Y981367D01*
X82470Y981404D01*
X82491Y981466D01*
X82522Y981525D01*
X82530Y981579D01*
X82542Y981616D01*
X82541Y981656D01*
X82549Y981710D01*
X82549Y984250D01*
X82538Y984315D01*
X82536Y984381D01*
X82518Y984424D01*
X82510Y984471D01*
X82476Y984528D01*
X82451Y984588D01*
X82420Y984623D01*
X82395Y984664D01*
X82344Y984706D01*
X82300Y984754D01*
X82258Y984776D01*
X82221Y984805D01*
X82159Y984826D01*
X82100Y984857D01*
X82046Y984865D01*
X82009Y984877D01*
X81969Y984876D01*
X81915Y984884D01*
X78105Y984884D01*
X78040Y984873D01*
X77974Y984871D01*
X77931Y984853D01*
X77884Y984845D01*
X77827Y984811D01*
X77767Y984786D01*
X77732Y984755D01*
X77691Y984730D01*
X77650Y984679D01*
X77601Y984635D01*
X77579Y984593D01*
X77550Y984556D01*
X77529Y984494D01*
X77498Y984435D01*
X77490Y984381D01*
X77478Y984344D01*
X77478Y984341D01*
X77479Y984304D01*
X77471Y984250D01*
X77471Y981710D01*
X77482Y981645D01*
X77484Y981579D01*
X77502Y981536D01*
X77510Y981489D01*
X77544Y981432D01*
X77569Y981372D01*
X77600Y981337D01*
X77625Y981296D01*
X77676Y981255D01*
X77720Y981206D01*
X77762Y981184D01*
X77799Y981155D01*
X77861Y981134D01*
X77920Y981103D01*
X77974Y981095D01*
X78011Y981083D01*
X78051Y981084D01*
X78105Y981076D01*
X81915Y981076D01*
X81980Y981087D01*
G37*
G36*
X705550Y550557D02*
X705550Y550557D01*
X705616Y550559D01*
X705659Y550577D01*
X705706Y550585D01*
X705763Y550619D01*
X705823Y550644D01*
X705858Y550675D01*
X705899Y550700D01*
X705941Y550751D01*
X705989Y550795D01*
X706011Y550837D01*
X706040Y550874D01*
X706061Y550936D01*
X706092Y550995D01*
X706100Y551049D01*
X706112Y551086D01*
X706111Y551126D01*
X706119Y551180D01*
X706119Y553720D01*
X706108Y553785D01*
X706106Y553851D01*
X706088Y553894D01*
X706080Y553941D01*
X706046Y553998D01*
X706021Y554058D01*
X705990Y554093D01*
X705965Y554134D01*
X705914Y554176D01*
X705870Y554224D01*
X705828Y554246D01*
X705791Y554275D01*
X705729Y554296D01*
X705670Y554327D01*
X705616Y554335D01*
X705579Y554347D01*
X705539Y554346D01*
X705485Y554354D01*
X701675Y554354D01*
X701610Y554343D01*
X701544Y554341D01*
X701501Y554323D01*
X701454Y554315D01*
X701397Y554281D01*
X701337Y554256D01*
X701302Y554225D01*
X701261Y554200D01*
X701220Y554149D01*
X701171Y554105D01*
X701149Y554063D01*
X701120Y554026D01*
X701099Y553964D01*
X701068Y553905D01*
X701060Y553851D01*
X701048Y553814D01*
X701048Y553811D01*
X701049Y553774D01*
X701041Y553720D01*
X701041Y551180D01*
X701052Y551115D01*
X701054Y551049D01*
X701072Y551006D01*
X701080Y550959D01*
X701114Y550902D01*
X701139Y550842D01*
X701170Y550807D01*
X701195Y550766D01*
X701246Y550725D01*
X701290Y550676D01*
X701332Y550654D01*
X701369Y550625D01*
X701431Y550604D01*
X701490Y550573D01*
X701544Y550565D01*
X701581Y550553D01*
X701621Y550554D01*
X701675Y550546D01*
X705485Y550546D01*
X705550Y550557D01*
G37*
G36*
X730950Y550557D02*
X730950Y550557D01*
X731016Y550559D01*
X731059Y550577D01*
X731106Y550585D01*
X731163Y550619D01*
X731223Y550644D01*
X731258Y550675D01*
X731299Y550700D01*
X731341Y550751D01*
X731389Y550795D01*
X731411Y550837D01*
X731440Y550874D01*
X731461Y550936D01*
X731492Y550995D01*
X731500Y551049D01*
X731512Y551086D01*
X731511Y551126D01*
X731519Y551180D01*
X731519Y553720D01*
X731508Y553785D01*
X731506Y553851D01*
X731488Y553894D01*
X731480Y553941D01*
X731446Y553998D01*
X731421Y554058D01*
X731390Y554093D01*
X731365Y554134D01*
X731314Y554176D01*
X731270Y554224D01*
X731228Y554246D01*
X731191Y554275D01*
X731129Y554296D01*
X731070Y554327D01*
X731016Y554335D01*
X730979Y554347D01*
X730939Y554346D01*
X730885Y554354D01*
X727075Y554354D01*
X727010Y554343D01*
X726944Y554341D01*
X726901Y554323D01*
X726854Y554315D01*
X726797Y554281D01*
X726737Y554256D01*
X726702Y554225D01*
X726661Y554200D01*
X726620Y554149D01*
X726571Y554105D01*
X726549Y554063D01*
X726520Y554026D01*
X726499Y553964D01*
X726468Y553905D01*
X726460Y553851D01*
X726448Y553814D01*
X726448Y553811D01*
X726449Y553774D01*
X726441Y553720D01*
X726441Y551180D01*
X726452Y551115D01*
X726454Y551049D01*
X726472Y551006D01*
X726480Y550959D01*
X726514Y550902D01*
X726539Y550842D01*
X726570Y550807D01*
X726595Y550766D01*
X726646Y550725D01*
X726690Y550676D01*
X726732Y550654D01*
X726769Y550625D01*
X726831Y550604D01*
X726890Y550573D01*
X726944Y550565D01*
X726981Y550553D01*
X727021Y550554D01*
X727075Y550546D01*
X730885Y550546D01*
X730950Y550557D01*
G37*
G36*
X243270Y550557D02*
X243270Y550557D01*
X243336Y550559D01*
X243379Y550577D01*
X243426Y550585D01*
X243483Y550619D01*
X243543Y550644D01*
X243578Y550675D01*
X243619Y550700D01*
X243661Y550751D01*
X243709Y550795D01*
X243731Y550837D01*
X243760Y550874D01*
X243781Y550936D01*
X243812Y550995D01*
X243820Y551049D01*
X243832Y551086D01*
X243831Y551126D01*
X243839Y551180D01*
X243839Y553720D01*
X243828Y553785D01*
X243826Y553851D01*
X243808Y553894D01*
X243800Y553941D01*
X243766Y553998D01*
X243741Y554058D01*
X243710Y554093D01*
X243685Y554134D01*
X243634Y554176D01*
X243590Y554224D01*
X243548Y554246D01*
X243511Y554275D01*
X243449Y554296D01*
X243390Y554327D01*
X243336Y554335D01*
X243299Y554347D01*
X243259Y554346D01*
X243205Y554354D01*
X239395Y554354D01*
X239330Y554343D01*
X239264Y554341D01*
X239221Y554323D01*
X239174Y554315D01*
X239117Y554281D01*
X239057Y554256D01*
X239022Y554225D01*
X238981Y554200D01*
X238940Y554149D01*
X238891Y554105D01*
X238869Y554063D01*
X238840Y554026D01*
X238819Y553964D01*
X238788Y553905D01*
X238780Y553851D01*
X238768Y553814D01*
X238768Y553811D01*
X238769Y553774D01*
X238761Y553720D01*
X238761Y551180D01*
X238772Y551115D01*
X238774Y551049D01*
X238792Y551006D01*
X238800Y550959D01*
X238834Y550902D01*
X238859Y550842D01*
X238890Y550807D01*
X238915Y550766D01*
X238966Y550725D01*
X239010Y550676D01*
X239052Y550654D01*
X239089Y550625D01*
X239151Y550604D01*
X239210Y550573D01*
X239264Y550565D01*
X239301Y550553D01*
X239341Y550554D01*
X239395Y550546D01*
X243205Y550546D01*
X243270Y550557D01*
G37*
G36*
X268670Y550557D02*
X268670Y550557D01*
X268736Y550559D01*
X268779Y550577D01*
X268826Y550585D01*
X268883Y550619D01*
X268943Y550644D01*
X268978Y550675D01*
X269019Y550700D01*
X269061Y550751D01*
X269109Y550795D01*
X269131Y550837D01*
X269160Y550874D01*
X269181Y550936D01*
X269212Y550995D01*
X269220Y551049D01*
X269232Y551086D01*
X269231Y551126D01*
X269239Y551180D01*
X269239Y553720D01*
X269228Y553785D01*
X269226Y553851D01*
X269208Y553894D01*
X269200Y553941D01*
X269166Y553998D01*
X269141Y554058D01*
X269110Y554093D01*
X269085Y554134D01*
X269034Y554176D01*
X268990Y554224D01*
X268948Y554246D01*
X268911Y554275D01*
X268849Y554296D01*
X268790Y554327D01*
X268736Y554335D01*
X268699Y554347D01*
X268659Y554346D01*
X268605Y554354D01*
X264795Y554354D01*
X264730Y554343D01*
X264664Y554341D01*
X264621Y554323D01*
X264574Y554315D01*
X264517Y554281D01*
X264457Y554256D01*
X264422Y554225D01*
X264381Y554200D01*
X264340Y554149D01*
X264291Y554105D01*
X264269Y554063D01*
X264240Y554026D01*
X264219Y553964D01*
X264188Y553905D01*
X264180Y553851D01*
X264168Y553814D01*
X264168Y553811D01*
X264169Y553774D01*
X264161Y553720D01*
X264161Y551180D01*
X264172Y551115D01*
X264174Y551049D01*
X264192Y551006D01*
X264200Y550959D01*
X264234Y550902D01*
X264259Y550842D01*
X264290Y550807D01*
X264315Y550766D01*
X264366Y550725D01*
X264410Y550676D01*
X264452Y550654D01*
X264489Y550625D01*
X264551Y550604D01*
X264610Y550573D01*
X264664Y550565D01*
X264701Y550553D01*
X264741Y550554D01*
X264795Y550546D01*
X268605Y550546D01*
X268670Y550557D01*
G37*
G36*
X544260Y366407D02*
X544260Y366407D01*
X544326Y366409D01*
X544369Y366427D01*
X544416Y366435D01*
X544473Y366469D01*
X544533Y366494D01*
X544568Y366525D01*
X544609Y366550D01*
X544651Y366601D01*
X544699Y366645D01*
X544721Y366687D01*
X544750Y366724D01*
X544771Y366786D01*
X544802Y366845D01*
X544810Y366899D01*
X544822Y366936D01*
X544821Y366976D01*
X544829Y367030D01*
X544829Y369570D01*
X544818Y369635D01*
X544816Y369701D01*
X544798Y369744D01*
X544790Y369791D01*
X544756Y369848D01*
X544731Y369908D01*
X544700Y369943D01*
X544675Y369984D01*
X544624Y370026D01*
X544580Y370074D01*
X544538Y370096D01*
X544501Y370125D01*
X544439Y370146D01*
X544380Y370177D01*
X544326Y370185D01*
X544289Y370197D01*
X544249Y370196D01*
X544195Y370204D01*
X540385Y370204D01*
X540320Y370193D01*
X540254Y370191D01*
X540211Y370173D01*
X540164Y370165D01*
X540107Y370131D01*
X540047Y370106D01*
X540012Y370075D01*
X539971Y370050D01*
X539930Y369999D01*
X539881Y369955D01*
X539859Y369913D01*
X539830Y369876D01*
X539809Y369814D01*
X539778Y369755D01*
X539770Y369701D01*
X539758Y369664D01*
X539758Y369661D01*
X539759Y369624D01*
X539751Y369570D01*
X539751Y367030D01*
X539762Y366965D01*
X539764Y366899D01*
X539782Y366856D01*
X539790Y366809D01*
X539824Y366752D01*
X539849Y366692D01*
X539880Y366657D01*
X539905Y366616D01*
X539956Y366575D01*
X540000Y366526D01*
X540042Y366504D01*
X540079Y366475D01*
X540141Y366454D01*
X540200Y366423D01*
X540254Y366415D01*
X540291Y366403D01*
X540331Y366404D01*
X540385Y366396D01*
X544195Y366396D01*
X544260Y366407D01*
G37*
G36*
X81980Y366407D02*
X81980Y366407D01*
X82046Y366409D01*
X82089Y366427D01*
X82136Y366435D01*
X82193Y366469D01*
X82253Y366494D01*
X82288Y366525D01*
X82329Y366550D01*
X82371Y366601D01*
X82419Y366645D01*
X82441Y366687D01*
X82470Y366724D01*
X82491Y366786D01*
X82522Y366845D01*
X82530Y366899D01*
X82542Y366936D01*
X82541Y366976D01*
X82549Y367030D01*
X82549Y369570D01*
X82538Y369635D01*
X82536Y369701D01*
X82518Y369744D01*
X82510Y369791D01*
X82476Y369848D01*
X82451Y369908D01*
X82420Y369943D01*
X82395Y369984D01*
X82344Y370026D01*
X82300Y370074D01*
X82258Y370096D01*
X82221Y370125D01*
X82159Y370146D01*
X82100Y370177D01*
X82046Y370185D01*
X82009Y370197D01*
X81969Y370196D01*
X81915Y370204D01*
X78105Y370204D01*
X78040Y370193D01*
X77974Y370191D01*
X77931Y370173D01*
X77884Y370165D01*
X77827Y370131D01*
X77767Y370106D01*
X77732Y370075D01*
X77691Y370050D01*
X77650Y369999D01*
X77601Y369955D01*
X77579Y369913D01*
X77550Y369876D01*
X77529Y369814D01*
X77498Y369755D01*
X77490Y369701D01*
X77478Y369664D01*
X77478Y369661D01*
X77479Y369624D01*
X77471Y369570D01*
X77471Y367030D01*
X77482Y366965D01*
X77484Y366899D01*
X77502Y366856D01*
X77510Y366809D01*
X77544Y366752D01*
X77569Y366692D01*
X77600Y366657D01*
X77625Y366616D01*
X77676Y366575D01*
X77720Y366526D01*
X77762Y366504D01*
X77799Y366475D01*
X77861Y366454D01*
X77920Y366423D01*
X77974Y366415D01*
X78011Y366403D01*
X78051Y366404D01*
X78105Y366396D01*
X81915Y366396D01*
X81980Y366407D01*
G37*
G36*
X81980Y341007D02*
X81980Y341007D01*
X82046Y341009D01*
X82089Y341027D01*
X82136Y341035D01*
X82193Y341069D01*
X82253Y341094D01*
X82288Y341125D01*
X82329Y341150D01*
X82371Y341201D01*
X82419Y341245D01*
X82441Y341287D01*
X82470Y341324D01*
X82491Y341386D01*
X82522Y341445D01*
X82530Y341499D01*
X82542Y341536D01*
X82541Y341576D01*
X82549Y341630D01*
X82549Y344170D01*
X82538Y344235D01*
X82536Y344301D01*
X82518Y344344D01*
X82510Y344391D01*
X82476Y344448D01*
X82451Y344508D01*
X82420Y344543D01*
X82395Y344584D01*
X82344Y344626D01*
X82300Y344674D01*
X82258Y344696D01*
X82221Y344725D01*
X82159Y344746D01*
X82100Y344777D01*
X82046Y344785D01*
X82009Y344797D01*
X81969Y344796D01*
X81915Y344804D01*
X78105Y344804D01*
X78040Y344793D01*
X77974Y344791D01*
X77931Y344773D01*
X77884Y344765D01*
X77827Y344731D01*
X77767Y344706D01*
X77732Y344675D01*
X77691Y344650D01*
X77650Y344599D01*
X77601Y344555D01*
X77579Y344513D01*
X77550Y344476D01*
X77529Y344414D01*
X77498Y344355D01*
X77490Y344301D01*
X77478Y344264D01*
X77478Y344261D01*
X77479Y344224D01*
X77471Y344170D01*
X77471Y341630D01*
X77482Y341565D01*
X77484Y341499D01*
X77502Y341456D01*
X77510Y341409D01*
X77544Y341352D01*
X77569Y341292D01*
X77600Y341257D01*
X77625Y341216D01*
X77676Y341175D01*
X77720Y341126D01*
X77762Y341104D01*
X77799Y341075D01*
X77861Y341054D01*
X77920Y341023D01*
X77974Y341015D01*
X78011Y341003D01*
X78051Y341004D01*
X78105Y340996D01*
X81915Y340996D01*
X81980Y341007D01*
G37*
G36*
X544260Y341007D02*
X544260Y341007D01*
X544326Y341009D01*
X544369Y341027D01*
X544416Y341035D01*
X544473Y341069D01*
X544533Y341094D01*
X544568Y341125D01*
X544609Y341150D01*
X544651Y341201D01*
X544699Y341245D01*
X544721Y341287D01*
X544750Y341324D01*
X544771Y341386D01*
X544802Y341445D01*
X544810Y341499D01*
X544822Y341536D01*
X544821Y341576D01*
X544829Y341630D01*
X544829Y344170D01*
X544818Y344235D01*
X544816Y344301D01*
X544798Y344344D01*
X544790Y344391D01*
X544756Y344448D01*
X544731Y344508D01*
X544700Y344543D01*
X544675Y344584D01*
X544624Y344626D01*
X544580Y344674D01*
X544538Y344696D01*
X544501Y344725D01*
X544439Y344746D01*
X544380Y344777D01*
X544326Y344785D01*
X544289Y344797D01*
X544249Y344796D01*
X544195Y344804D01*
X540385Y344804D01*
X540320Y344793D01*
X540254Y344791D01*
X540211Y344773D01*
X540164Y344765D01*
X540107Y344731D01*
X540047Y344706D01*
X540012Y344675D01*
X539971Y344650D01*
X539930Y344599D01*
X539881Y344555D01*
X539859Y344513D01*
X539830Y344476D01*
X539809Y344414D01*
X539778Y344355D01*
X539770Y344301D01*
X539758Y344264D01*
X539758Y344261D01*
X539759Y344224D01*
X539751Y344170D01*
X539751Y341630D01*
X539762Y341565D01*
X539764Y341499D01*
X539782Y341456D01*
X539790Y341409D01*
X539824Y341352D01*
X539849Y341292D01*
X539880Y341257D01*
X539905Y341216D01*
X539956Y341175D01*
X540000Y341126D01*
X540042Y341104D01*
X540079Y341075D01*
X540141Y341054D01*
X540200Y341023D01*
X540254Y341015D01*
X540291Y341003D01*
X540331Y341004D01*
X540385Y340996D01*
X544195Y340996D01*
X544260Y341007D01*
G37*
G36*
X544260Y315607D02*
X544260Y315607D01*
X544326Y315609D01*
X544369Y315627D01*
X544416Y315635D01*
X544473Y315669D01*
X544533Y315694D01*
X544568Y315725D01*
X544609Y315750D01*
X544651Y315801D01*
X544699Y315845D01*
X544721Y315887D01*
X544750Y315924D01*
X544771Y315986D01*
X544802Y316045D01*
X544810Y316099D01*
X544822Y316136D01*
X544821Y316176D01*
X544829Y316230D01*
X544829Y318770D01*
X544818Y318835D01*
X544816Y318901D01*
X544798Y318944D01*
X544790Y318991D01*
X544756Y319048D01*
X544731Y319108D01*
X544700Y319143D01*
X544675Y319184D01*
X544624Y319226D01*
X544580Y319274D01*
X544538Y319296D01*
X544501Y319325D01*
X544439Y319346D01*
X544380Y319377D01*
X544326Y319385D01*
X544289Y319397D01*
X544249Y319396D01*
X544195Y319404D01*
X540385Y319404D01*
X540320Y319393D01*
X540254Y319391D01*
X540211Y319373D01*
X540164Y319365D01*
X540107Y319331D01*
X540047Y319306D01*
X540012Y319275D01*
X539971Y319250D01*
X539930Y319199D01*
X539881Y319155D01*
X539859Y319113D01*
X539830Y319076D01*
X539809Y319014D01*
X539778Y318955D01*
X539770Y318901D01*
X539758Y318864D01*
X539758Y318861D01*
X539759Y318824D01*
X539751Y318770D01*
X539751Y316230D01*
X539762Y316165D01*
X539764Y316099D01*
X539782Y316056D01*
X539790Y316009D01*
X539824Y315952D01*
X539849Y315892D01*
X539880Y315857D01*
X539905Y315816D01*
X539956Y315775D01*
X540000Y315726D01*
X540042Y315704D01*
X540079Y315675D01*
X540141Y315654D01*
X540200Y315623D01*
X540254Y315615D01*
X540291Y315603D01*
X540331Y315604D01*
X540385Y315596D01*
X544195Y315596D01*
X544260Y315607D01*
G37*
G36*
X81980Y315607D02*
X81980Y315607D01*
X82046Y315609D01*
X82089Y315627D01*
X82136Y315635D01*
X82193Y315669D01*
X82253Y315694D01*
X82288Y315725D01*
X82329Y315750D01*
X82371Y315801D01*
X82419Y315845D01*
X82441Y315887D01*
X82470Y315924D01*
X82491Y315986D01*
X82522Y316045D01*
X82530Y316099D01*
X82542Y316136D01*
X82541Y316176D01*
X82549Y316230D01*
X82549Y318770D01*
X82538Y318835D01*
X82536Y318901D01*
X82518Y318944D01*
X82510Y318991D01*
X82476Y319048D01*
X82451Y319108D01*
X82420Y319143D01*
X82395Y319184D01*
X82344Y319226D01*
X82300Y319274D01*
X82258Y319296D01*
X82221Y319325D01*
X82159Y319346D01*
X82100Y319377D01*
X82046Y319385D01*
X82009Y319397D01*
X81969Y319396D01*
X81915Y319404D01*
X78105Y319404D01*
X78040Y319393D01*
X77974Y319391D01*
X77931Y319373D01*
X77884Y319365D01*
X77827Y319331D01*
X77767Y319306D01*
X77732Y319275D01*
X77691Y319250D01*
X77650Y319199D01*
X77601Y319155D01*
X77579Y319113D01*
X77550Y319076D01*
X77529Y319014D01*
X77498Y318955D01*
X77490Y318901D01*
X77478Y318864D01*
X77478Y318861D01*
X77479Y318824D01*
X77471Y318770D01*
X77471Y316230D01*
X77482Y316165D01*
X77484Y316099D01*
X77502Y316056D01*
X77510Y316009D01*
X77544Y315952D01*
X77569Y315892D01*
X77600Y315857D01*
X77625Y315816D01*
X77676Y315775D01*
X77720Y315726D01*
X77762Y315704D01*
X77799Y315675D01*
X77861Y315654D01*
X77920Y315623D01*
X77974Y315615D01*
X78011Y315603D01*
X78051Y315604D01*
X78105Y315596D01*
X81915Y315596D01*
X81980Y315607D01*
G37*
G36*
X544260Y264807D02*
X544260Y264807D01*
X544326Y264809D01*
X544369Y264827D01*
X544416Y264835D01*
X544473Y264869D01*
X544533Y264894D01*
X544568Y264925D01*
X544609Y264950D01*
X544651Y265001D01*
X544699Y265045D01*
X544721Y265087D01*
X544750Y265124D01*
X544771Y265186D01*
X544802Y265245D01*
X544810Y265299D01*
X544822Y265336D01*
X544821Y265376D01*
X544829Y265430D01*
X544829Y267970D01*
X544818Y268035D01*
X544816Y268101D01*
X544798Y268144D01*
X544790Y268191D01*
X544756Y268248D01*
X544731Y268308D01*
X544700Y268343D01*
X544675Y268384D01*
X544624Y268426D01*
X544580Y268474D01*
X544538Y268496D01*
X544501Y268525D01*
X544439Y268546D01*
X544380Y268577D01*
X544326Y268585D01*
X544289Y268597D01*
X544249Y268596D01*
X544195Y268604D01*
X540385Y268604D01*
X540320Y268593D01*
X540254Y268591D01*
X540211Y268573D01*
X540164Y268565D01*
X540107Y268531D01*
X540047Y268506D01*
X540012Y268475D01*
X539971Y268450D01*
X539930Y268399D01*
X539881Y268355D01*
X539859Y268313D01*
X539830Y268276D01*
X539809Y268214D01*
X539778Y268155D01*
X539770Y268101D01*
X539758Y268064D01*
X539758Y268061D01*
X539759Y268024D01*
X539751Y267970D01*
X539751Y265430D01*
X539762Y265365D01*
X539764Y265299D01*
X539782Y265256D01*
X539790Y265209D01*
X539824Y265152D01*
X539849Y265092D01*
X539880Y265057D01*
X539905Y265016D01*
X539956Y264975D01*
X540000Y264926D01*
X540042Y264904D01*
X540079Y264875D01*
X540141Y264854D01*
X540200Y264823D01*
X540254Y264815D01*
X540291Y264803D01*
X540331Y264804D01*
X540385Y264796D01*
X544195Y264796D01*
X544260Y264807D01*
G37*
G36*
X81980Y264807D02*
X81980Y264807D01*
X82046Y264809D01*
X82089Y264827D01*
X82136Y264835D01*
X82193Y264869D01*
X82253Y264894D01*
X82288Y264925D01*
X82329Y264950D01*
X82371Y265001D01*
X82419Y265045D01*
X82441Y265087D01*
X82470Y265124D01*
X82491Y265186D01*
X82522Y265245D01*
X82530Y265299D01*
X82542Y265336D01*
X82541Y265376D01*
X82549Y265430D01*
X82549Y267970D01*
X82538Y268035D01*
X82536Y268101D01*
X82518Y268144D01*
X82510Y268191D01*
X82476Y268248D01*
X82451Y268308D01*
X82420Y268343D01*
X82395Y268384D01*
X82344Y268426D01*
X82300Y268474D01*
X82258Y268496D01*
X82221Y268525D01*
X82159Y268546D01*
X82100Y268577D01*
X82046Y268585D01*
X82009Y268597D01*
X81969Y268596D01*
X81915Y268604D01*
X78105Y268604D01*
X78040Y268593D01*
X77974Y268591D01*
X77931Y268573D01*
X77884Y268565D01*
X77827Y268531D01*
X77767Y268506D01*
X77732Y268475D01*
X77691Y268450D01*
X77650Y268399D01*
X77601Y268355D01*
X77579Y268313D01*
X77550Y268276D01*
X77529Y268214D01*
X77498Y268155D01*
X77490Y268101D01*
X77478Y268064D01*
X77478Y268061D01*
X77479Y268024D01*
X77471Y267970D01*
X77471Y265430D01*
X77482Y265365D01*
X77484Y265299D01*
X77502Y265256D01*
X77510Y265209D01*
X77544Y265152D01*
X77569Y265092D01*
X77600Y265057D01*
X77625Y265016D01*
X77676Y264975D01*
X77720Y264926D01*
X77762Y264904D01*
X77799Y264875D01*
X77861Y264854D01*
X77920Y264823D01*
X77974Y264815D01*
X78011Y264803D01*
X78051Y264804D01*
X78105Y264796D01*
X81915Y264796D01*
X81980Y264807D01*
G37*
D10*
X25400Y609346D03*
X406400Y609346D03*
D11*
X137795Y539242D02*
X132461Y539242D01*
X137795Y539242D02*
X137795Y527558D01*
X132461Y527558D01*
X132461Y539242D01*
X132461Y529730D02*
X137795Y529730D01*
X137795Y531902D02*
X132461Y531902D01*
X132461Y534074D02*
X137795Y534074D01*
X137795Y536246D02*
X132461Y536246D01*
X132461Y538418D02*
X137795Y538418D01*
X129667Y539242D02*
X124333Y539242D01*
X129667Y539242D02*
X129667Y527558D01*
X124333Y527558D01*
X124333Y539242D01*
X124333Y529730D02*
X129667Y529730D01*
X129667Y531902D02*
X124333Y531902D01*
X124333Y534074D02*
X129667Y534074D01*
X129667Y536246D02*
X124333Y536246D01*
X124333Y538418D02*
X129667Y538418D01*
X121539Y539242D02*
X116205Y539242D01*
X121539Y539242D02*
X121539Y527558D01*
X116205Y527558D01*
X116205Y539242D01*
X116205Y529730D02*
X121539Y529730D01*
X121539Y531902D02*
X116205Y531902D01*
X116205Y534074D02*
X121539Y534074D01*
X121539Y536246D02*
X116205Y536246D01*
X116205Y538418D02*
X121539Y538418D01*
D12*
X425450Y6350D03*
X6350Y628396D03*
D10*
X25400Y25400D03*
X406400Y25400D03*
D13*
X88013Y272544D02*
X82421Y272544D01*
X88013Y272544D02*
X88013Y260856D01*
X82421Y260856D01*
X82421Y272544D01*
X82421Y263025D02*
X88013Y263025D01*
X88013Y265194D02*
X82421Y265194D01*
X82421Y267363D02*
X88013Y267363D01*
X88013Y269532D02*
X82421Y269532D01*
X82421Y271701D02*
X88013Y271701D01*
X77599Y272544D02*
X72007Y272544D01*
X77599Y272544D02*
X77599Y260856D01*
X72007Y260856D01*
X72007Y272544D01*
X72007Y263025D02*
X77599Y263025D01*
X77599Y265194D02*
X72007Y265194D01*
X72007Y267363D02*
X77599Y267363D01*
X77599Y269532D02*
X72007Y269532D01*
X72007Y271701D02*
X77599Y271701D01*
D14*
X49050Y194000D03*
X49050Y136200D03*
D15*
X374204Y335904D02*
X374204Y349896D01*
X413196Y349896D01*
X413196Y335904D01*
X374204Y335904D01*
X374204Y338068D02*
X413196Y338068D01*
X413196Y340232D02*
X374204Y340232D01*
X374204Y342396D02*
X413196Y342396D01*
X413196Y344560D02*
X374204Y344560D01*
X374204Y346724D02*
X413196Y346724D01*
X413196Y348888D02*
X374204Y348888D01*
X374204Y299096D02*
X374204Y285104D01*
X374204Y299096D02*
X413196Y299096D01*
X413196Y285104D01*
X374204Y285104D01*
X374204Y287268D02*
X413196Y287268D01*
X413196Y289432D02*
X374204Y289432D01*
X374204Y291596D02*
X413196Y291596D01*
X413196Y293760D02*
X374204Y293760D01*
X374204Y295924D02*
X413196Y295924D01*
X413196Y298088D02*
X374204Y298088D01*
D16*
X12700Y241300D03*
X12700Y266700D03*
X12700Y292100D03*
X12700Y317500D03*
X12700Y342900D03*
X12700Y368300D03*
X12700Y393700D03*
D13*
X27176Y217553D02*
X27176Y211961D01*
X27176Y217553D02*
X38864Y217553D01*
X38864Y211961D01*
X27176Y211961D01*
X27176Y214130D02*
X38864Y214130D01*
X38864Y216299D02*
X27176Y216299D01*
X27176Y207139D02*
X27176Y201547D01*
X27176Y207139D02*
X38864Y207139D01*
X38864Y201547D01*
X27176Y201547D01*
X27176Y203716D02*
X38864Y203716D01*
X38864Y205885D02*
X27176Y205885D01*
X269111Y558294D02*
X274703Y558294D01*
X274703Y546606D01*
X269111Y546606D01*
X269111Y558294D01*
X269111Y548775D02*
X274703Y548775D01*
X274703Y550944D02*
X269111Y550944D01*
X269111Y553113D02*
X274703Y553113D01*
X274703Y555282D02*
X269111Y555282D01*
X269111Y557451D02*
X274703Y557451D01*
X264289Y558294D02*
X258697Y558294D01*
X264289Y558294D02*
X264289Y546606D01*
X258697Y546606D01*
X258697Y558294D01*
X258697Y548775D02*
X264289Y548775D01*
X264289Y550944D02*
X258697Y550944D01*
X258697Y553113D02*
X264289Y553113D01*
X264289Y555282D02*
X258697Y555282D01*
X258697Y557451D02*
X264289Y557451D01*
X249303Y558294D02*
X243711Y558294D01*
X249303Y558294D02*
X249303Y546606D01*
X243711Y546606D01*
X243711Y558294D01*
X243711Y548775D02*
X249303Y548775D01*
X249303Y550944D02*
X243711Y550944D01*
X243711Y553113D02*
X249303Y553113D01*
X249303Y555282D02*
X243711Y555282D01*
X243711Y557451D02*
X249303Y557451D01*
X238889Y558294D02*
X233297Y558294D01*
X238889Y558294D02*
X238889Y546606D01*
X233297Y546606D01*
X233297Y558294D01*
X233297Y548775D02*
X238889Y548775D01*
X238889Y550944D02*
X233297Y550944D01*
X233297Y553113D02*
X238889Y553113D01*
X238889Y555282D02*
X233297Y555282D01*
X233297Y557451D02*
X238889Y557451D01*
X88013Y323344D02*
X82421Y323344D01*
X88013Y323344D02*
X88013Y311656D01*
X82421Y311656D01*
X82421Y323344D01*
X82421Y313825D02*
X88013Y313825D01*
X88013Y315994D02*
X82421Y315994D01*
X82421Y318163D02*
X88013Y318163D01*
X88013Y320332D02*
X82421Y320332D01*
X82421Y322501D02*
X88013Y322501D01*
X77599Y323344D02*
X72007Y323344D01*
X77599Y323344D02*
X77599Y311656D01*
X72007Y311656D01*
X72007Y323344D01*
X72007Y313825D02*
X77599Y313825D01*
X77599Y315994D02*
X72007Y315994D01*
X72007Y318163D02*
X77599Y318163D01*
X77599Y320332D02*
X72007Y320332D01*
X72007Y322501D02*
X77599Y322501D01*
X82421Y348744D02*
X88013Y348744D01*
X88013Y337056D01*
X82421Y337056D01*
X82421Y348744D01*
X82421Y339225D02*
X88013Y339225D01*
X88013Y341394D02*
X82421Y341394D01*
X82421Y343563D02*
X88013Y343563D01*
X88013Y345732D02*
X82421Y345732D01*
X82421Y347901D02*
X88013Y347901D01*
X77599Y348744D02*
X72007Y348744D01*
X77599Y348744D02*
X77599Y337056D01*
X72007Y337056D01*
X72007Y348744D01*
X72007Y339225D02*
X77599Y339225D01*
X77599Y341394D02*
X72007Y341394D01*
X72007Y343563D02*
X77599Y343563D01*
X77599Y345732D02*
X72007Y345732D01*
X72007Y347901D02*
X77599Y347901D01*
X82421Y374144D02*
X88013Y374144D01*
X88013Y362456D01*
X82421Y362456D01*
X82421Y374144D01*
X82421Y364625D02*
X88013Y364625D01*
X88013Y366794D02*
X82421Y366794D01*
X82421Y368963D02*
X88013Y368963D01*
X88013Y371132D02*
X82421Y371132D01*
X82421Y373301D02*
X88013Y373301D01*
X77599Y374144D02*
X72007Y374144D01*
X77599Y374144D02*
X77599Y362456D01*
X72007Y362456D01*
X72007Y374144D01*
X72007Y364625D02*
X77599Y364625D01*
X77599Y366794D02*
X72007Y366794D01*
X72007Y368963D02*
X77599Y368963D01*
X77599Y371132D02*
X72007Y371132D01*
X72007Y373301D02*
X77599Y373301D01*
D14*
X49050Y498800D03*
X49050Y441000D03*
D13*
X28446Y516761D02*
X28446Y522353D01*
X40134Y522353D01*
X40134Y516761D01*
X28446Y516761D01*
X28446Y518930D02*
X40134Y518930D01*
X40134Y521099D02*
X28446Y521099D01*
X28446Y511939D02*
X28446Y506347D01*
X28446Y511939D02*
X40134Y511939D01*
X40134Y506347D01*
X28446Y506347D01*
X28446Y508516D02*
X40134Y508516D01*
X40134Y510685D02*
X28446Y510685D01*
D17*
X355600Y203200D03*
X127000Y342900D03*
D16*
X215900Y622300D03*
X190500Y622300D03*
X165100Y622300D03*
X139700Y622300D03*
X139700Y12700D03*
X165100Y12700D03*
X190500Y12700D03*
X215900Y12700D03*
X241300Y12700D03*
X266700Y12700D03*
X292100Y12700D03*
X317500Y12700D03*
X342900Y12700D03*
X368300Y12700D03*
X241300Y622300D03*
X266700Y622300D03*
X292100Y622300D03*
X317500Y622300D03*
X342900Y622300D03*
X368300Y622300D03*
D18*
X330200Y457200D03*
D10*
X487680Y609346D03*
X868680Y609346D03*
D11*
X600075Y539242D02*
X594741Y539242D01*
X600075Y539242D02*
X600075Y527558D01*
X594741Y527558D01*
X594741Y539242D01*
X594741Y529730D02*
X600075Y529730D01*
X600075Y531902D02*
X594741Y531902D01*
X594741Y534074D02*
X600075Y534074D01*
X600075Y536246D02*
X594741Y536246D01*
X594741Y538418D02*
X600075Y538418D01*
X591947Y539242D02*
X586613Y539242D01*
X591947Y539242D02*
X591947Y527558D01*
X586613Y527558D01*
X586613Y539242D01*
X586613Y529730D02*
X591947Y529730D01*
X591947Y531902D02*
X586613Y531902D01*
X586613Y534074D02*
X591947Y534074D01*
X591947Y536246D02*
X586613Y536246D01*
X586613Y538418D02*
X591947Y538418D01*
X583819Y539242D02*
X578485Y539242D01*
X583819Y539242D02*
X583819Y527558D01*
X578485Y527558D01*
X578485Y539242D01*
X578485Y529730D02*
X583819Y529730D01*
X583819Y531902D02*
X578485Y531902D01*
X578485Y534074D02*
X583819Y534074D01*
X583819Y536246D02*
X578485Y536246D01*
X578485Y538418D02*
X583819Y538418D01*
D12*
X887730Y6350D03*
X468630Y628396D03*
D10*
X487680Y25400D03*
X868680Y25400D03*
D13*
X550293Y272544D02*
X544701Y272544D01*
X550293Y272544D02*
X550293Y260856D01*
X544701Y260856D01*
X544701Y272544D01*
X544701Y263025D02*
X550293Y263025D01*
X550293Y265194D02*
X544701Y265194D01*
X544701Y267363D02*
X550293Y267363D01*
X550293Y269532D02*
X544701Y269532D01*
X544701Y271701D02*
X550293Y271701D01*
X539879Y272544D02*
X534287Y272544D01*
X539879Y272544D02*
X539879Y260856D01*
X534287Y260856D01*
X534287Y272544D01*
X534287Y263025D02*
X539879Y263025D01*
X539879Y265194D02*
X534287Y265194D01*
X534287Y267363D02*
X539879Y267363D01*
X539879Y269532D02*
X534287Y269532D01*
X534287Y271701D02*
X539879Y271701D01*
D14*
X511330Y194000D03*
X511330Y136200D03*
D15*
X836484Y335904D02*
X836484Y349896D01*
X875476Y349896D01*
X875476Y335904D01*
X836484Y335904D01*
X836484Y338068D02*
X875476Y338068D01*
X875476Y340232D02*
X836484Y340232D01*
X836484Y342396D02*
X875476Y342396D01*
X875476Y344560D02*
X836484Y344560D01*
X836484Y346724D02*
X875476Y346724D01*
X875476Y348888D02*
X836484Y348888D01*
X836484Y299096D02*
X836484Y285104D01*
X836484Y299096D02*
X875476Y299096D01*
X875476Y285104D01*
X836484Y285104D01*
X836484Y287268D02*
X875476Y287268D01*
X875476Y289432D02*
X836484Y289432D01*
X836484Y291596D02*
X875476Y291596D01*
X875476Y293760D02*
X836484Y293760D01*
X836484Y295924D02*
X875476Y295924D01*
X875476Y298088D02*
X836484Y298088D01*
D16*
X474980Y241300D03*
X474980Y266700D03*
X474980Y292100D03*
X474980Y317500D03*
X474980Y342900D03*
X474980Y368300D03*
X474980Y393700D03*
D13*
X489456Y217553D02*
X489456Y211961D01*
X489456Y217553D02*
X501144Y217553D01*
X501144Y211961D01*
X489456Y211961D01*
X489456Y214130D02*
X501144Y214130D01*
X501144Y216299D02*
X489456Y216299D01*
X489456Y207139D02*
X489456Y201547D01*
X489456Y207139D02*
X501144Y207139D01*
X501144Y201547D01*
X489456Y201547D01*
X489456Y203716D02*
X501144Y203716D01*
X501144Y205885D02*
X489456Y205885D01*
X731391Y558294D02*
X736983Y558294D01*
X736983Y546606D01*
X731391Y546606D01*
X731391Y558294D01*
X731391Y548775D02*
X736983Y548775D01*
X736983Y550944D02*
X731391Y550944D01*
X731391Y553113D02*
X736983Y553113D01*
X736983Y555282D02*
X731391Y555282D01*
X731391Y557451D02*
X736983Y557451D01*
X726569Y558294D02*
X720977Y558294D01*
X726569Y558294D02*
X726569Y546606D01*
X720977Y546606D01*
X720977Y558294D01*
X720977Y548775D02*
X726569Y548775D01*
X726569Y550944D02*
X720977Y550944D01*
X720977Y553113D02*
X726569Y553113D01*
X726569Y555282D02*
X720977Y555282D01*
X720977Y557451D02*
X726569Y557451D01*
X711583Y558294D02*
X705991Y558294D01*
X711583Y558294D02*
X711583Y546606D01*
X705991Y546606D01*
X705991Y558294D01*
X705991Y548775D02*
X711583Y548775D01*
X711583Y550944D02*
X705991Y550944D01*
X705991Y553113D02*
X711583Y553113D01*
X711583Y555282D02*
X705991Y555282D01*
X705991Y557451D02*
X711583Y557451D01*
X701169Y558294D02*
X695577Y558294D01*
X701169Y558294D02*
X701169Y546606D01*
X695577Y546606D01*
X695577Y558294D01*
X695577Y548775D02*
X701169Y548775D01*
X701169Y550944D02*
X695577Y550944D01*
X695577Y553113D02*
X701169Y553113D01*
X701169Y555282D02*
X695577Y555282D01*
X695577Y557451D02*
X701169Y557451D01*
X550293Y323344D02*
X544701Y323344D01*
X550293Y323344D02*
X550293Y311656D01*
X544701Y311656D01*
X544701Y323344D01*
X544701Y313825D02*
X550293Y313825D01*
X550293Y315994D02*
X544701Y315994D01*
X544701Y318163D02*
X550293Y318163D01*
X550293Y320332D02*
X544701Y320332D01*
X544701Y322501D02*
X550293Y322501D01*
X539879Y323344D02*
X534287Y323344D01*
X539879Y323344D02*
X539879Y311656D01*
X534287Y311656D01*
X534287Y323344D01*
X534287Y313825D02*
X539879Y313825D01*
X539879Y315994D02*
X534287Y315994D01*
X534287Y318163D02*
X539879Y318163D01*
X539879Y320332D02*
X534287Y320332D01*
X534287Y322501D02*
X539879Y322501D01*
X544701Y348744D02*
X550293Y348744D01*
X550293Y337056D01*
X544701Y337056D01*
X544701Y348744D01*
X544701Y339225D02*
X550293Y339225D01*
X550293Y341394D02*
X544701Y341394D01*
X544701Y343563D02*
X550293Y343563D01*
X550293Y345732D02*
X544701Y345732D01*
X544701Y347901D02*
X550293Y347901D01*
X539879Y348744D02*
X534287Y348744D01*
X539879Y348744D02*
X539879Y337056D01*
X534287Y337056D01*
X534287Y348744D01*
X534287Y339225D02*
X539879Y339225D01*
X539879Y341394D02*
X534287Y341394D01*
X534287Y343563D02*
X539879Y343563D01*
X539879Y345732D02*
X534287Y345732D01*
X534287Y347901D02*
X539879Y347901D01*
X544701Y374144D02*
X550293Y374144D01*
X550293Y362456D01*
X544701Y362456D01*
X544701Y374144D01*
X544701Y364625D02*
X550293Y364625D01*
X550293Y366794D02*
X544701Y366794D01*
X544701Y368963D02*
X550293Y368963D01*
X550293Y371132D02*
X544701Y371132D01*
X544701Y373301D02*
X550293Y373301D01*
X539879Y374144D02*
X534287Y374144D01*
X539879Y374144D02*
X539879Y362456D01*
X534287Y362456D01*
X534287Y374144D01*
X534287Y364625D02*
X539879Y364625D01*
X539879Y366794D02*
X534287Y366794D01*
X534287Y368963D02*
X539879Y368963D01*
X539879Y371132D02*
X534287Y371132D01*
X534287Y373301D02*
X539879Y373301D01*
D14*
X511330Y498800D03*
X511330Y441000D03*
D13*
X490726Y516761D02*
X490726Y522353D01*
X502414Y522353D01*
X502414Y516761D01*
X490726Y516761D01*
X490726Y518930D02*
X502414Y518930D01*
X502414Y521099D02*
X490726Y521099D01*
X490726Y511939D02*
X490726Y506347D01*
X490726Y511939D02*
X502414Y511939D01*
X502414Y506347D01*
X490726Y506347D01*
X490726Y508516D02*
X502414Y508516D01*
X502414Y510685D02*
X490726Y510685D01*
D17*
X817880Y203200D03*
X589280Y342900D03*
D16*
X678180Y622300D03*
X652780Y622300D03*
X627380Y622300D03*
X601980Y622300D03*
X601980Y12700D03*
X627380Y12700D03*
X652780Y12700D03*
X678180Y12700D03*
X703580Y12700D03*
X728980Y12700D03*
X754380Y12700D03*
X779780Y12700D03*
X805180Y12700D03*
X830580Y12700D03*
X703580Y622300D03*
X728980Y622300D03*
X754380Y622300D03*
X779780Y622300D03*
X805180Y622300D03*
X830580Y622300D03*
D18*
X792480Y457200D03*
D10*
X25400Y1249426D03*
X406400Y1249426D03*
D11*
X137795Y1179322D02*
X132461Y1179322D01*
X137795Y1179322D02*
X137795Y1167638D01*
X132461Y1167638D01*
X132461Y1179322D01*
X132461Y1169810D02*
X137795Y1169810D01*
X137795Y1171982D02*
X132461Y1171982D01*
X132461Y1174154D02*
X137795Y1174154D01*
X137795Y1176326D02*
X132461Y1176326D01*
X132461Y1178498D02*
X137795Y1178498D01*
X129667Y1179322D02*
X124333Y1179322D01*
X129667Y1179322D02*
X129667Y1167638D01*
X124333Y1167638D01*
X124333Y1179322D01*
X124333Y1169810D02*
X129667Y1169810D01*
X129667Y1171982D02*
X124333Y1171982D01*
X124333Y1174154D02*
X129667Y1174154D01*
X129667Y1176326D02*
X124333Y1176326D01*
X124333Y1178498D02*
X129667Y1178498D01*
X121539Y1179322D02*
X116205Y1179322D01*
X121539Y1179322D02*
X121539Y1167638D01*
X116205Y1167638D01*
X116205Y1179322D01*
X116205Y1169810D02*
X121539Y1169810D01*
X121539Y1171982D02*
X116205Y1171982D01*
X116205Y1174154D02*
X121539Y1174154D01*
X121539Y1176326D02*
X116205Y1176326D01*
X116205Y1178498D02*
X121539Y1178498D01*
D12*
X425450Y646430D03*
X6350Y1268476D03*
D10*
X25400Y665480D03*
X406400Y665480D03*
D13*
X88013Y912624D02*
X82421Y912624D01*
X88013Y912624D02*
X88013Y900936D01*
X82421Y900936D01*
X82421Y912624D01*
X82421Y903105D02*
X88013Y903105D01*
X88013Y905274D02*
X82421Y905274D01*
X82421Y907443D02*
X88013Y907443D01*
X88013Y909612D02*
X82421Y909612D01*
X82421Y911781D02*
X88013Y911781D01*
X77599Y912624D02*
X72007Y912624D01*
X77599Y912624D02*
X77599Y900936D01*
X72007Y900936D01*
X72007Y912624D01*
X72007Y903105D02*
X77599Y903105D01*
X77599Y905274D02*
X72007Y905274D01*
X72007Y907443D02*
X77599Y907443D01*
X77599Y909612D02*
X72007Y909612D01*
X72007Y911781D02*
X77599Y911781D01*
D14*
X49050Y834080D03*
X49050Y776280D03*
D15*
X374204Y975984D02*
X374204Y989976D01*
X413196Y989976D01*
X413196Y975984D01*
X374204Y975984D01*
X374204Y978148D02*
X413196Y978148D01*
X413196Y980312D02*
X374204Y980312D01*
X374204Y982476D02*
X413196Y982476D01*
X413196Y984640D02*
X374204Y984640D01*
X374204Y986804D02*
X413196Y986804D01*
X413196Y988968D02*
X374204Y988968D01*
X374204Y939176D02*
X374204Y925184D01*
X374204Y939176D02*
X413196Y939176D01*
X413196Y925184D01*
X374204Y925184D01*
X374204Y927348D02*
X413196Y927348D01*
X413196Y929512D02*
X374204Y929512D01*
X374204Y931676D02*
X413196Y931676D01*
X413196Y933840D02*
X374204Y933840D01*
X374204Y936004D02*
X413196Y936004D01*
X413196Y938168D02*
X374204Y938168D01*
D16*
X12700Y881380D03*
X12700Y906780D03*
X12700Y932180D03*
X12700Y957580D03*
X12700Y982980D03*
X12700Y1008380D03*
X12700Y1033780D03*
D13*
X27176Y857633D02*
X27176Y852041D01*
X27176Y857633D02*
X38864Y857633D01*
X38864Y852041D01*
X27176Y852041D01*
X27176Y854210D02*
X38864Y854210D01*
X38864Y856379D02*
X27176Y856379D01*
X27176Y847219D02*
X27176Y841627D01*
X27176Y847219D02*
X38864Y847219D01*
X38864Y841627D01*
X27176Y841627D01*
X27176Y843796D02*
X38864Y843796D01*
X38864Y845965D02*
X27176Y845965D01*
X269111Y1198374D02*
X274703Y1198374D01*
X274703Y1186686D01*
X269111Y1186686D01*
X269111Y1198374D01*
X269111Y1188855D02*
X274703Y1188855D01*
X274703Y1191024D02*
X269111Y1191024D01*
X269111Y1193193D02*
X274703Y1193193D01*
X274703Y1195362D02*
X269111Y1195362D01*
X269111Y1197531D02*
X274703Y1197531D01*
X264289Y1198374D02*
X258697Y1198374D01*
X264289Y1198374D02*
X264289Y1186686D01*
X258697Y1186686D01*
X258697Y1198374D01*
X258697Y1188855D02*
X264289Y1188855D01*
X264289Y1191024D02*
X258697Y1191024D01*
X258697Y1193193D02*
X264289Y1193193D01*
X264289Y1195362D02*
X258697Y1195362D01*
X258697Y1197531D02*
X264289Y1197531D01*
X249303Y1198374D02*
X243711Y1198374D01*
X249303Y1198374D02*
X249303Y1186686D01*
X243711Y1186686D01*
X243711Y1198374D01*
X243711Y1188855D02*
X249303Y1188855D01*
X249303Y1191024D02*
X243711Y1191024D01*
X243711Y1193193D02*
X249303Y1193193D01*
X249303Y1195362D02*
X243711Y1195362D01*
X243711Y1197531D02*
X249303Y1197531D01*
X238889Y1198374D02*
X233297Y1198374D01*
X238889Y1198374D02*
X238889Y1186686D01*
X233297Y1186686D01*
X233297Y1198374D01*
X233297Y1188855D02*
X238889Y1188855D01*
X238889Y1191024D02*
X233297Y1191024D01*
X233297Y1193193D02*
X238889Y1193193D01*
X238889Y1195362D02*
X233297Y1195362D01*
X233297Y1197531D02*
X238889Y1197531D01*
X88013Y963424D02*
X82421Y963424D01*
X88013Y963424D02*
X88013Y951736D01*
X82421Y951736D01*
X82421Y963424D01*
X82421Y953905D02*
X88013Y953905D01*
X88013Y956074D02*
X82421Y956074D01*
X82421Y958243D02*
X88013Y958243D01*
X88013Y960412D02*
X82421Y960412D01*
X82421Y962581D02*
X88013Y962581D01*
X77599Y963424D02*
X72007Y963424D01*
X77599Y963424D02*
X77599Y951736D01*
X72007Y951736D01*
X72007Y963424D01*
X72007Y953905D02*
X77599Y953905D01*
X77599Y956074D02*
X72007Y956074D01*
X72007Y958243D02*
X77599Y958243D01*
X77599Y960412D02*
X72007Y960412D01*
X72007Y962581D02*
X77599Y962581D01*
X82421Y988824D02*
X88013Y988824D01*
X88013Y977136D01*
X82421Y977136D01*
X82421Y988824D01*
X82421Y979305D02*
X88013Y979305D01*
X88013Y981474D02*
X82421Y981474D01*
X82421Y983643D02*
X88013Y983643D01*
X88013Y985812D02*
X82421Y985812D01*
X82421Y987981D02*
X88013Y987981D01*
X77599Y988824D02*
X72007Y988824D01*
X77599Y988824D02*
X77599Y977136D01*
X72007Y977136D01*
X72007Y988824D01*
X72007Y979305D02*
X77599Y979305D01*
X77599Y981474D02*
X72007Y981474D01*
X72007Y983643D02*
X77599Y983643D01*
X77599Y985812D02*
X72007Y985812D01*
X72007Y987981D02*
X77599Y987981D01*
X82421Y1014224D02*
X88013Y1014224D01*
X88013Y1002536D01*
X82421Y1002536D01*
X82421Y1014224D01*
X82421Y1004705D02*
X88013Y1004705D01*
X88013Y1006874D02*
X82421Y1006874D01*
X82421Y1009043D02*
X88013Y1009043D01*
X88013Y1011212D02*
X82421Y1011212D01*
X82421Y1013381D02*
X88013Y1013381D01*
X77599Y1014224D02*
X72007Y1014224D01*
X77599Y1014224D02*
X77599Y1002536D01*
X72007Y1002536D01*
X72007Y1014224D01*
X72007Y1004705D02*
X77599Y1004705D01*
X77599Y1006874D02*
X72007Y1006874D01*
X72007Y1009043D02*
X77599Y1009043D01*
X77599Y1011212D02*
X72007Y1011212D01*
X72007Y1013381D02*
X77599Y1013381D01*
D14*
X49050Y1138880D03*
X49050Y1081080D03*
D13*
X28446Y1156841D02*
X28446Y1162433D01*
X40134Y1162433D01*
X40134Y1156841D01*
X28446Y1156841D01*
X28446Y1159010D02*
X40134Y1159010D01*
X40134Y1161179D02*
X28446Y1161179D01*
X28446Y1152019D02*
X28446Y1146427D01*
X28446Y1152019D02*
X40134Y1152019D01*
X40134Y1146427D01*
X28446Y1146427D01*
X28446Y1148596D02*
X40134Y1148596D01*
X40134Y1150765D02*
X28446Y1150765D01*
D17*
X355600Y843280D03*
X127000Y982980D03*
D16*
X215900Y1262380D03*
X190500Y1262380D03*
X165100Y1262380D03*
X139700Y1262380D03*
X139700Y652780D03*
X165100Y652780D03*
X190500Y652780D03*
X215900Y652780D03*
X241300Y652780D03*
X266700Y652780D03*
X292100Y652780D03*
X317500Y652780D03*
X342900Y652780D03*
X368300Y652780D03*
X241300Y1262380D03*
X266700Y1262380D03*
X292100Y1262380D03*
X317500Y1262380D03*
X342900Y1262380D03*
X368300Y1262380D03*
D18*
X330200Y1097280D03*
D10*
X487680Y1249426D03*
X868680Y1249426D03*
D11*
X600075Y1179322D02*
X594741Y1179322D01*
X600075Y1179322D02*
X600075Y1167638D01*
X594741Y1167638D01*
X594741Y1179322D01*
X594741Y1169810D02*
X600075Y1169810D01*
X600075Y1171982D02*
X594741Y1171982D01*
X594741Y1174154D02*
X600075Y1174154D01*
X600075Y1176326D02*
X594741Y1176326D01*
X594741Y1178498D02*
X600075Y1178498D01*
X591947Y1179322D02*
X586613Y1179322D01*
X591947Y1179322D02*
X591947Y1167638D01*
X586613Y1167638D01*
X586613Y1179322D01*
X586613Y1169810D02*
X591947Y1169810D01*
X591947Y1171982D02*
X586613Y1171982D01*
X586613Y1174154D02*
X591947Y1174154D01*
X591947Y1176326D02*
X586613Y1176326D01*
X586613Y1178498D02*
X591947Y1178498D01*
X583819Y1179322D02*
X578485Y1179322D01*
X583819Y1179322D02*
X583819Y1167638D01*
X578485Y1167638D01*
X578485Y1179322D01*
X578485Y1169810D02*
X583819Y1169810D01*
X583819Y1171982D02*
X578485Y1171982D01*
X578485Y1174154D02*
X583819Y1174154D01*
X583819Y1176326D02*
X578485Y1176326D01*
X578485Y1178498D02*
X583819Y1178498D01*
D12*
X887730Y646430D03*
X468630Y1268476D03*
D10*
X487680Y665480D03*
X868680Y665480D03*
D13*
X550293Y912624D02*
X544701Y912624D01*
X550293Y912624D02*
X550293Y900936D01*
X544701Y900936D01*
X544701Y912624D01*
X544701Y903105D02*
X550293Y903105D01*
X550293Y905274D02*
X544701Y905274D01*
X544701Y907443D02*
X550293Y907443D01*
X550293Y909612D02*
X544701Y909612D01*
X544701Y911781D02*
X550293Y911781D01*
X539879Y912624D02*
X534287Y912624D01*
X539879Y912624D02*
X539879Y900936D01*
X534287Y900936D01*
X534287Y912624D01*
X534287Y903105D02*
X539879Y903105D01*
X539879Y905274D02*
X534287Y905274D01*
X534287Y907443D02*
X539879Y907443D01*
X539879Y909612D02*
X534287Y909612D01*
X534287Y911781D02*
X539879Y911781D01*
D14*
X511330Y834080D03*
X511330Y776280D03*
D15*
X836484Y975984D02*
X836484Y989976D01*
X875476Y989976D01*
X875476Y975984D01*
X836484Y975984D01*
X836484Y978148D02*
X875476Y978148D01*
X875476Y980312D02*
X836484Y980312D01*
X836484Y982476D02*
X875476Y982476D01*
X875476Y984640D02*
X836484Y984640D01*
X836484Y986804D02*
X875476Y986804D01*
X875476Y988968D02*
X836484Y988968D01*
X836484Y939176D02*
X836484Y925184D01*
X836484Y939176D02*
X875476Y939176D01*
X875476Y925184D01*
X836484Y925184D01*
X836484Y927348D02*
X875476Y927348D01*
X875476Y929512D02*
X836484Y929512D01*
X836484Y931676D02*
X875476Y931676D01*
X875476Y933840D02*
X836484Y933840D01*
X836484Y936004D02*
X875476Y936004D01*
X875476Y938168D02*
X836484Y938168D01*
D16*
X474980Y881380D03*
X474980Y906780D03*
X474980Y932180D03*
X474980Y957580D03*
X474980Y982980D03*
X474980Y1008380D03*
X474980Y1033780D03*
D13*
X489456Y857633D02*
X489456Y852041D01*
X489456Y857633D02*
X501144Y857633D01*
X501144Y852041D01*
X489456Y852041D01*
X489456Y854210D02*
X501144Y854210D01*
X501144Y856379D02*
X489456Y856379D01*
X489456Y847219D02*
X489456Y841627D01*
X489456Y847219D02*
X501144Y847219D01*
X501144Y841627D01*
X489456Y841627D01*
X489456Y843796D02*
X501144Y843796D01*
X501144Y845965D02*
X489456Y845965D01*
X731391Y1198374D02*
X736983Y1198374D01*
X736983Y1186686D01*
X731391Y1186686D01*
X731391Y1198374D01*
X731391Y1188855D02*
X736983Y1188855D01*
X736983Y1191024D02*
X731391Y1191024D01*
X731391Y1193193D02*
X736983Y1193193D01*
X736983Y1195362D02*
X731391Y1195362D01*
X731391Y1197531D02*
X736983Y1197531D01*
X726569Y1198374D02*
X720977Y1198374D01*
X726569Y1198374D02*
X726569Y1186686D01*
X720977Y1186686D01*
X720977Y1198374D01*
X720977Y1188855D02*
X726569Y1188855D01*
X726569Y1191024D02*
X720977Y1191024D01*
X720977Y1193193D02*
X726569Y1193193D01*
X726569Y1195362D02*
X720977Y1195362D01*
X720977Y1197531D02*
X726569Y1197531D01*
X711583Y1198374D02*
X705991Y1198374D01*
X711583Y1198374D02*
X711583Y1186686D01*
X705991Y1186686D01*
X705991Y1198374D01*
X705991Y1188855D02*
X711583Y1188855D01*
X711583Y1191024D02*
X705991Y1191024D01*
X705991Y1193193D02*
X711583Y1193193D01*
X711583Y1195362D02*
X705991Y1195362D01*
X705991Y1197531D02*
X711583Y1197531D01*
X701169Y1198374D02*
X695577Y1198374D01*
X701169Y1198374D02*
X701169Y1186686D01*
X695577Y1186686D01*
X695577Y1198374D01*
X695577Y1188855D02*
X701169Y1188855D01*
X701169Y1191024D02*
X695577Y1191024D01*
X695577Y1193193D02*
X701169Y1193193D01*
X701169Y1195362D02*
X695577Y1195362D01*
X695577Y1197531D02*
X701169Y1197531D01*
X550293Y963424D02*
X544701Y963424D01*
X550293Y963424D02*
X550293Y951736D01*
X544701Y951736D01*
X544701Y963424D01*
X544701Y953905D02*
X550293Y953905D01*
X550293Y956074D02*
X544701Y956074D01*
X544701Y958243D02*
X550293Y958243D01*
X550293Y960412D02*
X544701Y960412D01*
X544701Y962581D02*
X550293Y962581D01*
X539879Y963424D02*
X534287Y963424D01*
X539879Y963424D02*
X539879Y951736D01*
X534287Y951736D01*
X534287Y963424D01*
X534287Y953905D02*
X539879Y953905D01*
X539879Y956074D02*
X534287Y956074D01*
X534287Y958243D02*
X539879Y958243D01*
X539879Y960412D02*
X534287Y960412D01*
X534287Y962581D02*
X539879Y962581D01*
X544701Y988824D02*
X550293Y988824D01*
X550293Y977136D01*
X544701Y977136D01*
X544701Y988824D01*
X544701Y979305D02*
X550293Y979305D01*
X550293Y981474D02*
X544701Y981474D01*
X544701Y983643D02*
X550293Y983643D01*
X550293Y985812D02*
X544701Y985812D01*
X544701Y987981D02*
X550293Y987981D01*
X539879Y988824D02*
X534287Y988824D01*
X539879Y988824D02*
X539879Y977136D01*
X534287Y977136D01*
X534287Y988824D01*
X534287Y979305D02*
X539879Y979305D01*
X539879Y981474D02*
X534287Y981474D01*
X534287Y983643D02*
X539879Y983643D01*
X539879Y985812D02*
X534287Y985812D01*
X534287Y987981D02*
X539879Y987981D01*
X544701Y1014224D02*
X550293Y1014224D01*
X550293Y1002536D01*
X544701Y1002536D01*
X544701Y1014224D01*
X544701Y1004705D02*
X550293Y1004705D01*
X550293Y1006874D02*
X544701Y1006874D01*
X544701Y1009043D02*
X550293Y1009043D01*
X550293Y1011212D02*
X544701Y1011212D01*
X544701Y1013381D02*
X550293Y1013381D01*
X539879Y1014224D02*
X534287Y1014224D01*
X539879Y1014224D02*
X539879Y1002536D01*
X534287Y1002536D01*
X534287Y1014224D01*
X534287Y1004705D02*
X539879Y1004705D01*
X539879Y1006874D02*
X534287Y1006874D01*
X534287Y1009043D02*
X539879Y1009043D01*
X539879Y1011212D02*
X534287Y1011212D01*
X534287Y1013381D02*
X539879Y1013381D01*
D14*
X511330Y1138880D03*
X511330Y1081080D03*
D13*
X490726Y1156841D02*
X490726Y1162433D01*
X502414Y1162433D01*
X502414Y1156841D01*
X490726Y1156841D01*
X490726Y1159010D02*
X502414Y1159010D01*
X502414Y1161179D02*
X490726Y1161179D01*
X490726Y1152019D02*
X490726Y1146427D01*
X490726Y1152019D02*
X502414Y1152019D01*
X502414Y1146427D01*
X490726Y1146427D01*
X490726Y1148596D02*
X502414Y1148596D01*
X502414Y1150765D02*
X490726Y1150765D01*
D17*
X817880Y843280D03*
X589280Y982980D03*
D16*
X678180Y1262380D03*
X652780Y1262380D03*
X627380Y1262380D03*
X601980Y1262380D03*
X601980Y652780D03*
X627380Y652780D03*
X652780Y652780D03*
X678180Y652780D03*
X703580Y652780D03*
X728980Y652780D03*
X754380Y652780D03*
X779780Y652780D03*
X805180Y652780D03*
X830580Y652780D03*
X703580Y1262380D03*
X728980Y1262380D03*
X754380Y1262380D03*
X779780Y1262380D03*
X805180Y1262380D03*
X830580Y1262380D03*
D18*
X792480Y1097280D03*
D19*
X93980Y1296035D03*
X845185Y1296035D03*
D20*
X84925Y-20955D02*
X84928Y-20733D01*
X84936Y-20511D01*
X84950Y-20289D01*
X84969Y-20067D01*
X84993Y-19847D01*
X85023Y-19626D01*
X85058Y-19407D01*
X85099Y-19188D01*
X85145Y-18971D01*
X85196Y-18755D01*
X85253Y-18540D01*
X85315Y-18326D01*
X85382Y-18115D01*
X85454Y-17904D01*
X85532Y-17696D01*
X85614Y-17490D01*
X85702Y-17286D01*
X85794Y-17083D01*
X85892Y-16884D01*
X85994Y-16687D01*
X86101Y-16492D01*
X86213Y-16300D01*
X86330Y-16111D01*
X86451Y-15924D01*
X86577Y-15741D01*
X86707Y-15561D01*
X86842Y-15384D01*
X86980Y-15211D01*
X87123Y-15041D01*
X87271Y-14874D01*
X87422Y-14711D01*
X87577Y-14552D01*
X87736Y-14397D01*
X87899Y-14246D01*
X88066Y-14098D01*
X88236Y-13955D01*
X88409Y-13817D01*
X88586Y-13682D01*
X88766Y-13552D01*
X88949Y-13426D01*
X89136Y-13305D01*
X89325Y-13188D01*
X89517Y-13076D01*
X89712Y-12969D01*
X89909Y-12867D01*
X90108Y-12769D01*
X90311Y-12677D01*
X90515Y-12589D01*
X90721Y-12507D01*
X90929Y-12429D01*
X91140Y-12357D01*
X91351Y-12290D01*
X91565Y-12228D01*
X91780Y-12171D01*
X91996Y-12120D01*
X92213Y-12074D01*
X92432Y-12033D01*
X92651Y-11998D01*
X92872Y-11968D01*
X93092Y-11944D01*
X93314Y-11925D01*
X93536Y-11911D01*
X93758Y-11903D01*
X93980Y-11900D01*
X94202Y-11903D01*
X94424Y-11911D01*
X94646Y-11925D01*
X94868Y-11944D01*
X95088Y-11968D01*
X95309Y-11998D01*
X95528Y-12033D01*
X95747Y-12074D01*
X95964Y-12120D01*
X96180Y-12171D01*
X96395Y-12228D01*
X96609Y-12290D01*
X96820Y-12357D01*
X97031Y-12429D01*
X97239Y-12507D01*
X97445Y-12589D01*
X97649Y-12677D01*
X97852Y-12769D01*
X98051Y-12867D01*
X98248Y-12969D01*
X98443Y-13076D01*
X98635Y-13188D01*
X98824Y-13305D01*
X99011Y-13426D01*
X99194Y-13552D01*
X99374Y-13682D01*
X99551Y-13817D01*
X99724Y-13955D01*
X99894Y-14098D01*
X100061Y-14246D01*
X100224Y-14397D01*
X100383Y-14552D01*
X100538Y-14711D01*
X100689Y-14874D01*
X100837Y-15041D01*
X100980Y-15211D01*
X101118Y-15384D01*
X101253Y-15561D01*
X101383Y-15741D01*
X101509Y-15924D01*
X101630Y-16111D01*
X101747Y-16300D01*
X101859Y-16492D01*
X101966Y-16687D01*
X102068Y-16884D01*
X102166Y-17083D01*
X102258Y-17286D01*
X102346Y-17490D01*
X102428Y-17696D01*
X102506Y-17904D01*
X102578Y-18115D01*
X102645Y-18326D01*
X102707Y-18540D01*
X102764Y-18755D01*
X102815Y-18971D01*
X102861Y-19188D01*
X102902Y-19407D01*
X102937Y-19626D01*
X102967Y-19847D01*
X102991Y-20067D01*
X103010Y-20289D01*
X103024Y-20511D01*
X103032Y-20733D01*
X103035Y-20955D01*
X103032Y-21177D01*
X103024Y-21399D01*
X103010Y-21621D01*
X102991Y-21843D01*
X102967Y-22063D01*
X102937Y-22284D01*
X102902Y-22503D01*
X102861Y-22722D01*
X102815Y-22939D01*
X102764Y-23155D01*
X102707Y-23370D01*
X102645Y-23584D01*
X102578Y-23795D01*
X102506Y-24006D01*
X102428Y-24214D01*
X102346Y-24420D01*
X102258Y-24624D01*
X102166Y-24827D01*
X102068Y-25026D01*
X101966Y-25223D01*
X101859Y-25418D01*
X101747Y-25610D01*
X101630Y-25799D01*
X101509Y-25986D01*
X101383Y-26169D01*
X101253Y-26349D01*
X101118Y-26526D01*
X100980Y-26699D01*
X100837Y-26869D01*
X100689Y-27036D01*
X100538Y-27199D01*
X100383Y-27358D01*
X100224Y-27513D01*
X100061Y-27664D01*
X99894Y-27812D01*
X99724Y-27955D01*
X99551Y-28093D01*
X99374Y-28228D01*
X99194Y-28358D01*
X99011Y-28484D01*
X98824Y-28605D01*
X98635Y-28722D01*
X98443Y-28834D01*
X98248Y-28941D01*
X98051Y-29043D01*
X97852Y-29141D01*
X97649Y-29233D01*
X97445Y-29321D01*
X97239Y-29403D01*
X97031Y-29481D01*
X96820Y-29553D01*
X96609Y-29620D01*
X96395Y-29682D01*
X96180Y-29739D01*
X95964Y-29790D01*
X95747Y-29836D01*
X95528Y-29877D01*
X95309Y-29912D01*
X95088Y-29942D01*
X94868Y-29966D01*
X94646Y-29985D01*
X94424Y-29999D01*
X94202Y-30007D01*
X93980Y-30010D01*
X93758Y-30007D01*
X93536Y-29999D01*
X93314Y-29985D01*
X93092Y-29966D01*
X92872Y-29942D01*
X92651Y-29912D01*
X92432Y-29877D01*
X92213Y-29836D01*
X91996Y-29790D01*
X91780Y-29739D01*
X91565Y-29682D01*
X91351Y-29620D01*
X91140Y-29553D01*
X90929Y-29481D01*
X90721Y-29403D01*
X90515Y-29321D01*
X90311Y-29233D01*
X90108Y-29141D01*
X89909Y-29043D01*
X89712Y-28941D01*
X89517Y-28834D01*
X89325Y-28722D01*
X89136Y-28605D01*
X88949Y-28484D01*
X88766Y-28358D01*
X88586Y-28228D01*
X88409Y-28093D01*
X88236Y-27955D01*
X88066Y-27812D01*
X87899Y-27664D01*
X87736Y-27513D01*
X87577Y-27358D01*
X87422Y-27199D01*
X87271Y-27036D01*
X87123Y-26869D01*
X86980Y-26699D01*
X86842Y-26526D01*
X86707Y-26349D01*
X86577Y-26169D01*
X86451Y-25986D01*
X86330Y-25799D01*
X86213Y-25610D01*
X86101Y-25418D01*
X85994Y-25223D01*
X85892Y-25026D01*
X85794Y-24827D01*
X85702Y-24624D01*
X85614Y-24420D01*
X85532Y-24214D01*
X85454Y-24006D01*
X85382Y-23795D01*
X85315Y-23584D01*
X85253Y-23370D01*
X85196Y-23155D01*
X85145Y-22939D01*
X85099Y-22722D01*
X85058Y-22503D01*
X85023Y-22284D01*
X84993Y-22063D01*
X84969Y-21843D01*
X84950Y-21621D01*
X84936Y-21399D01*
X84928Y-21177D01*
X84925Y-20955D01*
D21*
X93980Y-20955D03*
M02*
